<?xml version="1.0" encoding="utf-8"?>
<!-- Generator: Adobe Illustrator 24.3.0, SVG Export Plug-In . SVG Version: 6.00 Build 0)  -->
<svg version="1.1" id="Layer_1" xmlns="http://www.w3.org/2000/svg" xmlns:xlink="http://www.w3.org/1999/xlink" x="0px" y="0px"
	 viewBox="0 0 512 512" style="enable-background:new 0 0 512 512;" xml:space="preserve">
<style type="text/css">
	.st0{fill:#22448F;}
</style>
<g id="l1" transform="translate(-133.28571,-456.42468)">
	<path id="path2855" class="st0" d="M204.77,667.7l-2.63,0.42l-3.04,0.97l-2.35,1.38l-1.38,1.38l-14.94,20.34h188.01v-23.93
		l-91.44-0.41l-7.61,1.38l-4.7,1.94l-3.32,2.35l-3.74,4.01l-2.63,3.74l-3.74,6.92v-20.34h-44.13h-0.28h-2.08V667.7z M514.93,667.7
		l-4.98,0.69l-3.6,0.69l-4.01,1.94l-3.6,2.35L496.4,676l-3.74,4.98l-1.94,4.7l-1.66,5.67v0.69h117.31v-23.93L514.93,667.7z
		 M372.99,668.11v23.93h27.25v-23.93H372.99z M460.01,668.11v23.93h27.53v-23.93H460.01z M632.8,668.39
		c-6.92,0-12.59,5.67-12.59,12.59s5.67,12.45,12.59,12.45s12.45-5.53,12.45-12.45C645.25,674.06,639.58,668.39,632.8,668.39z
		 M632.8,670.46c5.67,0,10.38,4.7,10.38,10.51c0,5.67-4.7,10.38-10.38,10.38s-10.38-4.57-10.38-10.38
		C622.29,675.17,626.99,670.46,632.8,670.46z M632.11,672.95c-1.11,0-3.18,0-3.87,0.14c-0.69,0-0.83,0.42-0.83,1.25v13.56
		c0,0.28,0.28,0.55,0.42,0.55h2.21c0.28,0,0.42-0.28,0.42-0.55v-5.4H631h0.97c0.14,0,0.41,0.14,0.41,0.28l3.18,5.26
		c0,0.28,0.14,0.42,0.42,0.42h2.21c0.28,0,0.41-0.28,0.41-0.42v-0.41l-3.32-5.53c1.66-0.55,2.91-1.8,2.91-4.01v-0.28
		C638.19,674.06,635.98,672.95,632.11,672.95z M630.31,675.58h0.41h1.52c2.08,0,2.91,0.55,2.91,2.08v0.28
		c0,1.38-0.83,2.08-2.91,2.08h-1.94L630.31,675.58L630.31,675.58z M179.18,693.01v0.28l-45.93,63.5h33.2L211,695.36L179.18,693.01z
		 M372.99,693.01l0.42,32.51l-2.35-5.95l-1.66-3.04l-2.63-3.32l-4.01-3.74l-3.32-1.94l-4.7-1.66l-4.01-0.97l-98.64-6.23l3.32,8.02
		l1.94,2.91l2.63,3.04v0.28l1.66,1.38h0.28l1.66,1.38l8.99,3.32h0.69l1.38,0.28h0.28l3.04,0.41l66.82,4.29l1.66,0.69l0.97,0.69
		l0.69,0.97l0.69,0.97v0.28v0.69v0.97v0.28l-0.28,0.69l-0.69,0.97l-0.28,0.28l-0.97,0.69l-0.69,0.41h-0.69h-0.28l-93.66,0.28v-34.86
		l-26.98-1.66v60.46l119.66,0.42l5.95-0.69l6.92-1.94l5.26-3.04l4.29-3.6l1.94-2.35l2.63-3.32l1.38-3.04l1.38-4.29l0.69,3.6
		l0.69,2.35l2.35,5.26l1.94,2.35l1.38,1.66l3.6,2.63l3.04,1.38l4.7,1.66l7.06,0.97h63.78l8.02-1.66l2.91-1.38l4.01-2.35l3.32-3.32
		l2.35-3.6l1.38-1.94l1.38-4.7l0.69-4.01v22.96h95.32l7.33-1.38l4.01-1.38l4.7-2.35l4.01-3.04l4.01-4.01l1.66-2.63l1.66-4.01
		l0.69-3.32l0.28-5.67l-0.69-4.29l-1.38-4.01l-2.35-4.29l-1.94-2.63l-3.6-3.6l-2.35-1.38l-4.98-2.63l-3.74-0.97l-2.35-0.28h-0.69
		l-0.69-0.28h-0.69l-96.01-6.64v0.69l0.69,3.32l3.32,5.95l3.74,4.7l0.28,0.28l0.28,0.41l1.38,0.97l2.91,1.66l8.3,3.04l71.52,4.98
		h0.28l1.66,0.28l0.69,0.69h0.41l0.28,0.28l0.28,0.28v0.41l0.42,0.28v0.28l0.28,1.38v0.69l-0.28,0.97v0.69l-0.42,0.28v0.28h-0.28
		l-0.28,0.42l-0.41,0.28h-0.28l-0.28,0.28l-0.97,0.28h-0.69l-0.28,0.41h-94.49l0.42-4.29l-0.69-30.3l-26.56-1.38v30.57v1.38
		l-0.42,0.97l-0.28,0.97l-0.28,0.28l-0.42,0.42h-0.28v0.28v0.28l-1.66,0.97l-1.66,0.28h-1.38h-44.82l-0.69,0.42h-0.97l-0.28-0.42
		h-0.28h-1.52h-0.28l-0.42-0.28l-1.66-0.69h-0.42l-0.28-0.28l-0.28-0.28l-0.42-0.28h-0.28v-0.42l-0.69-0.69l-0.69-0.97l-0.28-0.97
		v-0.42v-0.69v-0.41v-0.28v-32.23L372.99,693.01z M252.08,698.69L252.08,698.69h-0.42H252.08z"/>
</g>
</svg>
