<svg xmlns="http://www.w3.org/2000/svg" width="110" height="21" fill="none"><g fill="#000" clip-path="url(#a)"><path d="M0 0h8.064c1.536 0 2.688.384 3.542 1.024.939.768 1.45 1.877 1.45 3.243 0 1.579-.64 2.56-1.92 3.157v.086c1.707.554 2.689 2.09 2.689 3.925 0 1.75-.683 3.115-1.792 3.968-.94.683-2.134.982-3.755.982H0V0Zm7.254 6.4c.853 0 1.493-.47 1.493-1.45 0-.94-.64-1.409-1.536-1.409H4.438v2.817h2.816V6.4Zm.384 6.358c.981 0 1.706-.597 1.706-1.664 0-1.152-.768-1.664-1.706-1.664H4.48v3.37h3.158v-.042ZM14.55 0h4.224v16.427H14.55V0ZM19.627 10.582c0-3.712 2.39-6.187 6.102-6.187s6.059 2.517 6.059 6.187c0 3.712-2.347 6.187-6.059 6.187s-6.102-2.475-6.102-6.187Zm7.937 0c0-2.048-.64-3.328-1.92-3.328-1.28 0-1.878 1.28-1.878 3.328s.598 3.37 1.878 3.37c1.28-.042 1.92-1.322 1.92-3.37ZM32.257 10.582c0-3.712 2.39-6.187 6.102-6.187s6.016 2.475 6.016 6.187-2.346 6.187-6.059 6.187c-3.67 0-6.059-2.475-6.059-6.187Zm7.937 0c0-2.048-.64-3.328-1.92-3.328-1.28 0-1.878 1.28-1.878 3.328s.598 3.37 1.878 3.37c1.28-.042 1.92-1.322 1.92-3.37ZM45.228 4.694h3.926v1.75h.085c.768-1.366 1.835-2.092 3.542-2.092 1.493 0 2.603.726 3.157 2.006h.086c.938-1.536 2.176-2.006 3.627-2.006 2.73 0 3.882 2.006 3.882 4.694v7.339h-4.096V9.77c0-1.195-.384-1.963-1.408-1.963s-1.536.94-1.536 2.22v6.357h-4.096V9.77c0-1.195-.384-1.963-1.408-1.963s-1.536.94-1.536 2.22v6.357h-4.225V4.694ZM68.697 14.849h-.043v1.536h-3.925V0h4.096v5.888h.085c.768-1.024 1.835-1.578 3.328-1.578 2.944 0 4.651 2.645 4.651 6.186 0 3.969-1.835 6.273-4.907 6.273-1.28 0-2.603-.598-3.285-1.92Zm3.968-4.395c0-1.878-.683-3.115-1.92-3.115-1.28 0-2.048 1.237-2.048 3.115 0 1.877.81 3.115 2.048 3.115 1.237 0 1.92-1.195 1.92-3.115ZM77.358 10.54c0-3.67 2.432-6.188 5.931-6.188 1.75 0 3.073.555 4.097 1.536 1.365 1.323 1.962 3.371 1.92 5.76h-7.851c.17 1.451.853 2.22 2.09 2.22.726 0 1.366-.342 1.622-1.11h3.968c-.683 2.688-2.773 4.01-5.718 4.01-3.627-.042-6.059-2.517-6.059-6.229Zm4.097-1.238h3.755c-.086-1.408-.854-2.134-1.835-2.134-1.152-.042-1.792.768-1.92 2.134ZM93.956 6.699h.086c.853-1.621 1.962-2.261 3.37-2.261.342 0 .555.042.683.128V8.15h-.085c-2.432-.427-3.84.725-3.84 3.37v4.907h-4.14V4.694h3.926v2.005ZM98.522 16.427h3.968c.171.512.683.982 1.664.982 1.323 0 1.792-.811 1.792-2.048v-.854h-.085c-.64.768-1.536 1.323-2.816 1.323-2.518 0-4.736-1.877-4.736-5.547 0-3.37 1.792-5.974 4.522-5.974 1.579 0 2.518.64 3.158 1.622h.085V4.65H110v10.155c0 1.877-.64 3.328-1.622 4.182-1.024.896-2.474 1.28-4.138 1.28-3.158.042-5.334-1.238-5.718-3.84Zm7.595-6.315c0-1.45-.683-2.645-1.877-2.645-1.153 0-1.878 1.024-1.878 2.645 0 1.58.725 2.688 1.878 2.688 1.152 0 1.877-1.152 1.877-2.688Z"/></g><defs><clipPath id="a"><path fill="#fff" d="M0 0h110v20.31H0z"/></clipPath></defs></svg>