<svg xmlns="http://www.w3.org/2000/svg" version="1.1" xmlns:xlink="http://www.w3.org/1999/xlink" xmlns:svgjs="http://svgjs.com/svgjs" width="1440" height="560" preserveAspectRatio="none" viewBox="0 0 1440 560"><g mask="url(&quot;#SvgjsMask1028&quot;)" fill="none"><path d="M583.284,588.859C606.188,589.528,625.264,572.813,636.268,552.714C646.809,533.462,648.452,509.823,636.708,491.28C625.647,473.815,603.955,469.333,583.284,469.052C561.952,468.763,538.173,471.447,527.289,489.795C516.258,508.391,524.762,530.946,535.402,549.769C546.269,568.993,561.21,588.214,583.284,588.859" fill="rgba(79, 28, 142, 0.4)" class="triangle-float1"></path><path d="M1011.894,439.296C1067.894,439.842,1127.284,429.809,1158.247,383.144C1192.203,331.969,1195.09,263.777,1163.169,211.308C1132.316,160.595,1071.242,141.328,1011.894,142.586C955.004,143.792,900.434,168.595,871.333,217.494C841.58,267.489,839.262,331.194,870.404,380.336C899.718,426.593,957.134,438.762,1011.894,439.296" fill="rgba(79, 28, 142, 0.4)" class="triangle-float2"></path><path d="M118.175,316.725C164.17,318.625,215.879,319.835,242.294,282.134C271.783,240.047,270.868,181.596,243.194,138.294C217.262,97.718,166.188,84.229,118.175,87.919C76.509,91.121,43.561,119.141,22.529,155.252C1.328,191.654,-10.836,236.318,10.633,272.563C31.8,308.298,76.676,315.01,118.175,316.725" fill="rgba(79, 28, 142, 0.4)" class="triangle-float2"></path><path d="M1281.73 117.7 a142.73 142.73 0 1 0 285.46 0 a142.73 142.73 0 1 0 -285.46 0z" fill="rgba(79, 28, 142, 0.4)" class="triangle-float2"></path><path d="M1197.897,604.089C1227.031,603.575,1247.795,578.647,1261.36,552.858C1273.837,529.137,1276.112,501.942,1264.273,477.896C1250.776,450.482,1228.452,423.746,1197.897,423.958C1167.568,424.169,1146.97,451.834,1133.101,478.807C1120.618,503.084,1117.89,530.922,1130.431,555.169C1144.109,581.614,1168.129,604.614,1197.897,604.089" fill="rgba(79, 28, 142, 0.4)" class="triangle-float2"></path><path d="M685.581,488.768C703.416,487.645,715.406,472.083,723.503,456.153C730.715,441.964,732.815,425.367,724.795,411.618C716.832,397.966,701.386,391.146,685.581,391.138C669.761,391.13,655.114,398.442,646.301,411.58C636.239,426.58,630.184,445.414,638.376,461.512C647.208,478.868,666.145,489.992,685.581,488.768" fill="rgba(79, 28, 142, 0.4)" class="triangle-float1"></path></g><defs><mask id="SvgjsMask1028"><rect width="1440" height="560" fill="#ffffff"></rect></mask><style>
            @keyframes float1 {
                0%{transform: translate(0, 0)}
                50%{transform: translate(-10px, 0)}
                100%{transform: translate(0, 0)}
            }

            .triangle-float1 {
                animation: float1 5s infinite;
            }

            @keyframes float2 {
                0%{transform: translate(0, 0)}
                50%{transform: translate(-5px, -5px)}
                100%{transform: translate(0, 0)}
            }

            .triangle-float2 {
                animation: float2 4s infinite;
            }

            @keyframes float3 {
                0%{transform: translate(0, 0)}
                50%{transform: translate(0, -10px)}
                100%{transform: translate(0, 0)}
            }

            .triangle-float3 {
                animation: float3 6s infinite;
            }
        </style></defs></svg>