<svg xmlns="http://www.w3.org/2000/svg" width="76" height="20" fill="none"><g clip-path="url(#a)"><path fill="#33629A" d="M7.317 1.864H8.98a5.584 5.584 0 0 1 2.994.381 5.324 5.324 0 0 1 2.395 3.214c.249.704.249.704.847.454h.468V.337H.015v.984h.642a1.862 1.862 0 0 1 1.46.69c.6.968.701 2.054.701 7.703 0 6.001-.13 7.469-.7 8.217a1.58 1.58 0 0 1-1.213.646c-.89.161-.89.146-.89.543a.59.59 0 0 0 0 .41H9.9a.928.928 0 0 0 0-.836 5.017 5.017 0 0 0-.73-.147 4.853 4.853 0 0 1-.788-.161 2.639 2.639 0 0 1-1.066-2.392c-.146-.968-.22-2.744-.22-4.211v-1.16h.585a7.855 7.855 0 0 1 2.161.235 2.708 2.708 0 0 1 1.256 1.937l.131.455h.891v-6.5h-.818l-.13.63a2.62 2.62 0 0 1-1.33 1.938c-.346.103-.71.128-1.066.073h-1.68V7.806c0-1.643.088-5.106.147-5.649l.073-.293ZM75.664 13.5a5.304 5.304 0 0 0-3.023-2.304 7.293 7.293 0 0 1-2.614-1.467 1.468 1.468 0 0 1-.424-1.306 1.75 1.75 0 0 1 .511-1.233 1.766 1.766 0 0 1 1.753-.484 3.677 3.677 0 0 1 1.67 1.021c.456.486.772 1.086.915 1.737.234.66.263.66.686.485l.263-.103V6.192l-.19-.088a11.24 11.24 0 0 0-4.483-.616 5.245 5.245 0 0 0-3.505 1.467 4.05 4.05 0 0 0-1.27 3.17c.007.9.364 1.764.992 2.406a5.923 5.923 0 0 0 2.483 1.467c2.264.896 2.92 1.468 2.92 2.51.01.439-.129.869-.394 1.218-.265.35-.641.598-1.066.704a3.59 3.59 0 0 1-1.548 0 4.497 4.497 0 0 1-1.738-1.216 4.526 4.526 0 0 1-.993-1.88l-.19-.47h-.262c-.126.01-.25.04-.365.088h-.147v4.168h.249c.986.33 2.004.556 3.037.675h1.46a5.698 5.698 0 0 0 1.885-.177 4.532 4.532 0 0 0 2.112-1.006 4.563 4.563 0 0 0 1.334-1.928c.175-.418.264-.867.263-1.32a3.67 3.67 0 0 0-.321-1.864ZM61.907 5.913a6.705 6.705 0 0 0-5.506.132 6.416 6.416 0 0 0-2.095 1.647 6.451 6.451 0 0 0-1.25 2.36 7.87 7.87 0 0 0-.394 2.934c-.01.541.034 1.082.132 1.614a6.525 6.525 0 0 0 1.802 3.452 6.474 6.474 0 0 0 3.44 1.801c.85.108 1.708.108 2.556 0a6.992 6.992 0 0 0 2.483-.954 4.39 4.39 0 0 0 1.548-1.467.736.736 0 0 0-.35-.455c-.167.06-.324.145-.468.25a4.163 4.163 0 0 1-2.453.69 3.882 3.882 0 0 1-3.11-1.233 3.507 3.507 0 0 1-.746-.998 6.85 6.85 0 0 1-.715-2.935v-.572h8.09v-.293a7.224 7.224 0 0 0 0-.88 5.89 5.89 0 0 0-.799-2.948 5.855 5.855 0 0 0-2.165-2.145Zm-4.075 5.078H56.81v-.866c.336-2.216 1.168-3.537 2.19-3.537 1.023 0 1.461 1.306 1.65 3.698v.675h-.875l-1.943.03Zm-21-5.562a3.055 3.055 0 0 0-1.46.308 4.904 4.904 0 0 0-2.264 2.275l-.19.352V5.429h-.073c-.176 0-5.58 1.086-5.754 1.16-.176.073-.117.087-.117.352 0 .264 0 .308.117.322l.57.118a1.048 1.048 0 0 1 .817.425c.365.485.438 1.336.438 4.96a28.47 28.47 0 0 1-.204 4.886 1.205 1.205 0 0 1-1.008.954l-.497.103h-.19v.41a.59.59 0 0 0 0 .426h8.164v-.425c.029-.14.029-.286 0-.426a8.129 8.129 0 0 1-1.46-.19 1.463 1.463 0 0 1-.774-1.468c-.117-.851-.175-3.346-.146-5.253.029-1.908 0-2.025.16-2.157a2.62 2.62 0 0 1 1.71-.543c.58.013 1.148.158 1.664.425.179.1.37.174.57.22 0 0 1.46-3.55 1.46-3.712a1.724 1.724 0 0 0-1.534-.587Zm-9.844 6.163a6.612 6.612 0 0 0-.873-2.978 6.576 6.576 0 0 0-2.135-2.246 7.566 7.566 0 0 0-6.835-.19 6.625 6.625 0 0 0-3.198 3.815 9.848 9.848 0 0 0 0 5.634 6.155 6.155 0 0 0 1.563 2.656 5.918 5.918 0 0 0 3.373 1.644 14.65 14.65 0 0 0 2.454 0c.3-.046.597-.11.89-.191a6.494 6.494 0 0 0 3.084-1.924 6.543 6.543 0 0 0 1.575-3.285c.146-.971.18-1.956.102-2.935Zm-6.075 7.337c-1.46.44-2.556-.983-2.92-3.977a27.624 27.624 0 0 1 0-4.71c.291-2.406 1.036-3.624 2.19-3.624a1.455 1.455 0 0 1 1.227.543c.978.983 1.46 2.934 1.46 5.87a10.92 10.92 0 0 1-.76 4.87c-.274.451-.698.789-1.197.954v.074ZM47.2 5.723a4.84 4.84 0 0 0-1.24 0c-.792-.001-1.574.17-2.294.499l-.452.19V3.228c.079-1.074.079-2.153 0-3.228-.176 0-5.755 1.071-5.842 1.115a.457.457 0 0 0 0 .338c0 .308 0 .293.657.44.185.041.362.11.526.205.285.27.475.625.54 1.013.166 1.116.22 2.247.16 3.375v12.883l.395.088c.584.132 2.235.41 2.775.47 1.079.086 2.163.086 3.242 0a6.597 6.597 0 0 0 3.302-1.299 6.644 6.644 0 0 0 2.16-2.825c.269-.72.455-1.468.555-2.23a13.267 13.267 0 0 0-.102-3.096 5.66 5.66 0 0 0-1.445-3.071A5.616 5.616 0 0 0 47.2 5.723Zm-3.826 12.956c0-.19-.146-6.617-.117-9.185v-2.01l.424-.103c.286-.041.576-.041.861 0 .317-.033.634.04.906.205.545.378.998.876 1.325 1.455.326.58.517 1.226.559 1.89a16.216 16.216 0 0 1 0 3.214 7.076 7.076 0 0 1-1.694 4.212 2.026 2.026 0 0 1-1.037.528 2.588 2.588 0 0 1-.89 0c-.278 0-.278-.088-.278-.206h-.059Z"/></g><defs><clipPath id="a"><path fill="#fff" d="M0 0h76v20H0z"/></clipPath></defs></svg>