<?xml version="1.0" encoding="UTF-8" standalone="no"?>
<!-- Created with Inkscape (http://www.inkscape.org/) -->

<svg
   version="1.1"
   id="svg2"
   width="666.66669"
   height="666.66669"
   viewBox="0 0 666.66669 666.66669"
   sodipodi:docname="8669064.eps"
   xmlns:inkscape="http://www.inkscape.org/namespaces/inkscape"
   xmlns:sodipodi="http://sodipodi.sourceforge.net/DTD/sodipodi-0.dtd"
   xmlns="http://www.w3.org/2000/svg"
   xmlns:svg="http://www.w3.org/2000/svg">
  <defs
     id="defs6" />
  <sodipodi:namedview
     id="namedview4"
     pagecolor="#ffffff"
     bordercolor="#000000"
     borderopacity="0.25"
     inkscape:showpageshadow="2"
     inkscape:pageopacity="0.0"
     inkscape:pagecheckerboard="0"
     inkscape:deskcolor="#d1d1d1" />
  <g
     id="g8"
     inkscape:groupmode="layer"
     inkscape:label="ink_ext_XXXXXX"
     transform="matrix(1.3333333,0,0,-1.3333333,0,666.66667)">
    <g
       id="g10"
       transform="scale(0.1)">
      <path
         d="M 0,0 H 5000 V 5000 H 0 Z"
         style="fill:#ffffff;fill-opacity:1;fill-rule:nonzero;stroke:none"
         id="path12" />
      <path
         d="M 568.766,424.07 H 4453.3 c -6.84,756.99 -20.52,1513.95 -20.52,2270.96 0,332.53 -21.29,521.23 -21.29,943.04 0,418.99 -172.21,788.57 -652.72,851.95 -793.52,104.65 -1793.58,64.78 -2445.55,18.55 -470.986,-33.4 -729.134,-348.47 -750.294,-893.81 -31.172,-803.27 -10.742,-2346.59 5.84,-3190.69"
         style="fill:#fae7dd;fill-opacity:1;fill-rule:nonzero;stroke:none"
         id="path14" />
      <path
         d="m 4455.79,1898.87 c -26.35,-6.35 -48.24,-25.75 -66.5,-54.12 -27.43,-42.67 -47.71,-106.48 -63.22,-184.78 -15.47,-78.28 -26,-170.99 -33.02,-270.96 -7.48,-106.68 -9.72,-216.99 -9.72,-310.98 0,-140.96 5.04,-245.221 5.05,-245.311 l 15.78,0.773 c 0,0.02 -0.31,6.457 -0.78,18.399 -1.42,35.808 -4.25,120.699 -4.25,226.139 0,93.74 2.24,203.73 9.69,309.87 9.3,132.71 24.87,252.37 49.66,341.04 12.37,44.32 27.08,80.88 44.09,107.25 17.06,26.46 36.03,42.33 56.91,47.32 l -3.69,15.36"
         style="fill:#e9caae;fill-opacity:1;fill-rule:nonzero;stroke:none"
         id="path16" />
      <path
         d="m 4355.47,879.012 c 26.31,270.728 68.95,673.798 68.96,960.868 0,69.22 -2.47,131.71 -8.3,184.14 -6.73,60.51 -27.22,109.26 -55.23,143.18 -27.96,33.87 -63.77,53.04 -100.43,53.05 -30.65,0.04 -61.33,-13.57 -87.13,-41.36 l 11.56,-10.77 c 23.47,25.12 49.62,36.28 75.57,36.32 30.99,0.01 62.51,-16.2 88.25,-47.31 25.69,-31.07 45.28,-76.92 51.71,-134.86 5.73,-51.55 8.2,-113.55 8.2,-182.39 0.01,-285.65 -42.56,-688.58 -68.89,-959.341 l 15.73,-1.527"
         style="fill:#e9caae;fill-opacity:1;fill-rule:nonzero;stroke:none"
         id="path18" />
      <path
         d="m 4428.29,2465.45 c -9.63,6.7 -20.33,10.37 -31.33,10.35 -10.12,0.01 -20.3,-3.06 -30.1,-8.81 -17.17,-10.1 -33.5,-28.22 -49.16,-54.47 -23.43,-39.41 -45.25,-97.4 -63.39,-175.69 -18.12,-78.28 -32.48,-176.84 -40.59,-297.16 -4.22,-62.52 -6,-129.08 -6,-197.07 0.01,-385.29 57.37,-817.01 57.39,-817.19 l 15.66,2.078 c 0,0.012 -0.89,6.703 -2.45,19.231 -10.96,87.701 -54.81,460.051 -54.8,795.881 0,67.72 1.78,133.94 5.97,196.01 12.27,182.3 39.03,313.89 70.87,399.27 15.89,42.68 33.09,73.77 49.94,93.72 8.41,9.99 16.71,17.17 24.55,21.76 7.86,4.59 15.18,6.63 22.11,6.64 7.53,-0.02 14.85,-2.38 22.33,-7.54 l 9,12.99"
         style="fill:#e9caae;fill-opacity:1;fill-rule:nonzero;stroke:none"
         id="path20" />
      <path
         d="m 4423.79,2458.96 c -125.47,31.37 -210.17,-119.2 -106.65,-232.13 103.51,-112.92 279.18,-225.85 279.18,-225.85 0,0 72.15,150.56 81.56,307.41 9.41,156.84 -72.9,220.82 -163.11,213.3 -75.3,-6.27 -90.98,-62.73 -90.98,-62.73"
         style="fill:#e9caae;fill-opacity:1;fill-rule:nonzero;stroke:none"
         id="path22" />
      <path
         d="m 4019.14,1734.35 c 106.65,131.74 128.61,112.93 232.13,191.34 103.52,78.42 109.78,153.7 62.73,213.3 -47.05,59.6 -134.88,34.52 -134.88,34.52 0,0 -6.28,59.6 -100.38,59.6 -94.11,0 -166.25,-109.8 -147.43,-276.05 18.82,-166.25 87.83,-222.71 87.83,-222.71"
         style="fill:#e9caae;fill-opacity:1;fill-rule:nonzero;stroke:none"
         id="path24" />
      <path
         d="m 4457.64,1891.19 c -72.05,28.22 -302.63,28.22 -219.77,-175.66 82.86,-203.9 225.75,-255.51 285.94,-375.88 33.37,-66.73 30.94,-151.33 30.94,-151.33 0,0 114.25,64.28 223.53,295.08 92.3,194.94 56.29,418.6 -97.27,473.66 -183.74,65.87 -223.37,-65.87 -223.37,-65.87"
         style="fill:#e9caae;fill-opacity:1;fill-rule:nonzero;stroke:none"
         id="path26" />
      <path
         d="m 4540.6,421.32 h -399.04 l -55.17,698.12 h 509.38 L 4540.6,421.32"
         style="fill:#e9caae;fill-opacity:1;fill-rule:nonzero;stroke:none"
         id="path28" />
      <path
         d="m 1580.27,3697.54 c -162.91,0 -294.98,132.07 -294.98,294.99 0,162.91 132.07,294.98 294.98,294.98 162.92,0 294.98,-132.07 294.98,-294.98 0,-162.92 -132.06,-294.99 -294.98,-294.99"
         style="fill:#e9caae;fill-opacity:1;fill-rule:nonzero;stroke:none"
         id="path30" />
      <path
         d="m 1580.27,3961.12 c -17.35,0 -31.4,14.06 -31.4,31.41 0,17.35 14.05,31.41 31.4,31.41 17.35,0 31.41,-14.06 31.41,-31.41 0,-17.35 -14.06,-31.41 -31.41,-31.41"
         style="fill:#fae7dd;fill-opacity:1;fill-rule:nonzero;stroke:none"
         id="path32" />
      <path
         d="m 1580.83,4171.94 v 0 c -7.85,0 -14.21,-6.36 -14.21,-14.21 v -174.58 h 28.41 v 174.58 c 0,7.85 -6.36,14.21 -14.2,14.21"
         style="fill:#fae7dd;fill-opacity:1;fill-rule:nonzero;stroke:none"
         id="path34" />
      <path
         d="m 1768.15,4125.83 -186.74,-114.23 14.5,-23.7 186.7,114.31 c 6.08,3.72 8.34,11.45 5.22,17.86 -3.57,7.35 -12.7,10.02 -19.68,5.76"
         style="fill:#fae7dd;fill-opacity:1;fill-rule:nonzero;stroke:none"
         id="path36" />
      <path
         d="m 3190.98,3769.95 h -605.17 v 96.85 h 605.17 v -96.85"
         style="fill:#ffffff;fill-opacity:1;fill-rule:nonzero;stroke:none"
         id="path38" />
      <path
         d="m 3190.98,3895.87 h -605.17 v 96.85 h 605.17 v -96.85"
         style="fill:#ffffff;fill-opacity:1;fill-rule:nonzero;stroke:none"
         id="path40" />
      <path
         d="m 3440.1,3772.28 82.27,477.59 77.76,-13.4 -82.28,-477.59 -77.75,13.4"
         style="fill:#e9caae;fill-opacity:1;fill-rule:nonzero;stroke:none"
         id="path42" />
      <path
         d="m 3341.73,3772.28 82.27,477.59 77.76,-13.4 -82.28,-477.59 -77.75,13.4"
         style="fill:#e9caae;fill-opacity:1;fill-rule:nonzero;stroke:none"
         id="path44" />
      <path
         d="m 3243.36,3772.28 82.27,477.59 77.76,-13.4 -82.28,-477.59 -77.75,13.4"
         style="fill:#e9caae;fill-opacity:1;fill-rule:nonzero;stroke:none"
         id="path46" />
      <path
         d="m 3576.64,3758.88 v 347.03 h 14.65 l 16.04,-347.03 h -30.69"
         style="fill:#e9caae;fill-opacity:1;fill-rule:nonzero;stroke:none"
         id="path48" />
      <path
         d="M 3679.95,3779.34 H 2462.43 v -69.18 h 1217.52 v 69.18"
         style="fill:#e9caae;fill-opacity:1;fill-rule:nonzero;stroke:none"
         id="path50" />
      <path
         d="m 2802.23,1906.22 h 50.88 L 2698.46,426.57 h -50.87 l 154.64,1479.65"
         style="fill:#9d644f;fill-opacity:1;fill-rule:nonzero;stroke:none"
         id="path52" />
      <path
         d="m 3608.6,613.789 h -65.44 v 700.171 h 65.44 V 613.789"
         style="fill:#721839;fill-opacity:1;fill-rule:nonzero;stroke:none"
         id="path54" />
      <path
         d="m 3581.09,850.422 h -10.42 c -26.17,0 -47.39,-21.223 -47.39,-47.391 V 590.16 c 0,-12.449 10.09,-22.531 22.53,-22.531 h 60.15 c 12.44,0 22.53,10.082 22.53,22.531 v 212.871 c 0,26.168 -21.22,47.391 -47.4,47.391"
         style="fill:#721839;fill-opacity:1;fill-rule:nonzero;stroke:none"
         id="path56" />
      <path
         d="m 3575.88,591.379 v 0 c -7.69,0 -13.92,-6.227 -13.92,-13.918 v -89.84 c 0,-7.691 6.23,-13.922 13.92,-13.922 7.69,0 13.92,6.231 13.92,13.922 v 89.84 c 0,7.691 -6.23,13.918 -13.92,13.918"
         style="fill:#721839;fill-opacity:1;fill-rule:nonzero;stroke:none"
         id="path58" />
      <path
         d="m 3662.79,1244.59 h -173.82 c -24.07,0 -45.82,14.38 -55.24,36.53 l -23.27,54.72 c -16.84,39.59 12.22,83.53 55.23,83.53 h 220.38 c 43.02,0 72.07,-43.94 55.24,-83.53 l -23.27,-54.72 c -9.43,-22.15 -31.17,-36.53 -55.25,-36.53"
         style="fill:#721839;fill-opacity:1;fill-rule:nonzero;stroke:none"
         id="path60" />
      <path
         d="m 3902.75,459.922 c 0,-25.981 -21.07,-47.063 -47.06,-47.063 -25.98,0 -47.06,21.082 -47.06,47.063 0,25.988 21.08,47.058 47.06,47.058 25.99,0 47.06,-21.07 47.06,-47.058"
         style="fill:#721839;fill-opacity:1;fill-rule:nonzero;stroke:none"
         id="path62" />
      <path
         d="m 3622.94,459.922 c 0,-25.981 -21.06,-47.063 -47.05,-47.063 -26,0 -47.06,21.082 -47.06,47.063 0,25.988 21.06,47.058 47.06,47.058 25.99,0 47.05,-21.07 47.05,-47.058"
         style="fill:#721839;fill-opacity:1;fill-rule:nonzero;stroke:none"
         id="path64" />
      <path
         d="m 3249.01,459.922 c 0,-25.981 21.08,-47.063 47.06,-47.063 25.99,0 47.06,21.082 47.06,47.063 0,25.988 -21.07,47.058 -47.06,47.058 -25.98,0 -47.06,-21.07 -47.06,-47.058"
         style="fill:#721839;fill-opacity:1;fill-rule:nonzero;stroke:none"
         id="path66" />
      <path
         d="m 3313.97,440.09 -27.79,12.57 c 51.1,112.981 161.96,183.16 289.36,183.16 h 0.05 c 127.34,-0.011 238.16,-70.199 289.21,-183.16 l -27.79,-12.57 c -46.05,101.902 -146.22,165.211 -261.43,165.242 h -0.04 c -115.27,0 -215.47,-63.32 -261.57,-165.242"
         style="fill:#721839;fill-opacity:1;fill-rule:nonzero;stroke:none"
         id="path68" />
      <path
         d="m 4258.76,2715.9 c -51.68,99.06 -226.11,109.83 -226.11,109.83 l -423.81,-105.98 c 0,0 -176.78,-308.52 -210.96,-468.28 -25.92,-121.16 -330,-581 -452.6,-789.13 -39.04,-66.27 -8.11,-71.42 13.59,-81.48 231.84,-107.51 934.78,0 934.78,0 87.98,0 177.05,88 195.49,174.01 20.82,97.07 41,247.62 41.47,467.38 0.97,456.82 234.29,490.21 128.15,693.65"
         style="fill:#721839;fill-opacity:1;fill-rule:nonzero;stroke:none"
         id="path70" />
      <path
         d="m 3953.83,1516.07 c 45.99,15.92 79.87,55.23 87.86,103.24 15.87,95.29 28.9,226.88 29.28,402.94 0.97,456.82 180.11,562.94 119.06,708.77 -69.62,166.27 -527.11,98.61 -678,0 -125.85,-82.26 -139.61,-319.79 -173.79,-479.55 -28.83,-134.73 -67.31,-621.67 -78.66,-770.82 236.84,-15.01 472.24,-41.41 694.25,35.42"
         style="fill:#5d132e;fill-opacity:1;fill-rule:nonzero;stroke:none"
         id="path72" />
      <path
         d="m 3388.94,787.301 39.14,-196.262 c 0,0 -26.19,-43.5 -62.7,-60.789 -32.21,-15.262 -48.88,-26.629 -82.8,-28.508 -24.95,-1.39 -30.57,-73.75 -30.57,-73.75 h 216.38 l 186.55,78.039 c 0,0 -1.75,44.09 -17.27,93.27 -15.53,49.179 -63.32,223.32 -63.32,223.32 l -185.41,-35.32"
         style="fill:#19212a;fill-opacity:1;fill-rule:nonzero;stroke:none"
         id="path74" />
      <path
         d="m 2835.28,785.172 -5.17,-194.133 c 0,0 -44.69,-42.051 -116.03,-74.019 -45.86,-20.559 -149.53,-89.028 -93.81,-89.028 h 238.31 l 209.65,-0.98 c 0,0 2.59,76.039 -12.94,125.218 -15.53,49.18 -44,87.989 -46.59,157.879 -2.59,69.879 -5.17,108.711 -5.17,108.711 l -168.25,-33.648"
         style="fill:#19212a;fill-opacity:1;fill-rule:nonzero;stroke:none"
         id="path76" />
      <path
         d="m 3589.38,1753.27 -74.01,175.78 h -249.79 c 0,0 -161.9,-55.51 -342.3,-106.39 -180.41,-50.88 -289.53,-69.39 -331.16,-180.4 -41.63,-111.02 27.75,-333.05 78.63,-485.7 50.89,-152.65 148.03,-434.818 148.03,-434.818 0,0 118.38,-32.371 192.38,-4.621 0,0 -32.02,569.989 -61.52,716.979 0,0 246.55,4.63 348.32,13.88 101.77,9.25 254.41,222.03 291.42,305.29"
         style="fill:#232f3d;fill-opacity:1;fill-rule:nonzero;stroke:none"
         id="path78" />
      <path
         d="m 3414.63,1813.41 c -50.88,-23.13 -316.11,-149.35 -365.43,-194.28 -58.57,-53.37 -46.25,-138.77 -18.5,-189.66 27.76,-50.88 138.77,-272.91 203.53,-407.06 64.76,-134.14 148.03,-319.168 148.03,-319.168 0,0 78.63,-18.5 208.15,46.25 0,0 -56.1,273.178 -88.49,421.198 -32.38,148.02 -80.73,288.32 -80.73,288.32 0,0 238.6,-15.66 349.62,7.47 111.02,23.13 157.28,50.88 152.65,208.16 -4.62,157.27 -37,259.04 -37,259.04 l -453.33,-4.63 -18.5,-115.64"
         style="fill:#232f3d;fill-opacity:1;fill-rule:nonzero;stroke:none"
         id="path80" />
      <path
         d="m 3428.2,1929.84 -18.51,-115.64 4.94,-0.79 -2.07,4.55 c -25.54,-11.61 -104.57,-48.95 -183.5,-89.06 -39.46,-20.05 -78.88,-40.79 -111.58,-59.36 -32.75,-18.62 -58.61,-34.87 -71.65,-46.71 -31.56,-28.73 -43.33,-66.58 -43.29,-103.19 0.01,-34.1 10.02,-67.31 23.77,-92.56 27.63,-50.64 138.71,-272.79 203.42,-406.84 l 9,4.35 c -64.8,134.24 -175.76,356.16 -203.64,407.28 -12.99,23.79 -22.57,55.66 -22.55,87.77 0.03,34.58 10.89,69.22 40.03,95.8 11.61,10.62 37.4,27 69.85,45.4 97.48,55.38 256.27,130.74 294.28,148.02 l 2.44,1.11 18.93,118.29 -9.87,1.58"
         style="fill:#19212a;fill-opacity:1;fill-rule:nonzero;stroke:none"
         id="path82" />
      <path
         d="m 3372.44,1539.63 c 0,0 0.92,-1.64 2.66,-4.95 12.15,-23.16 63.27,-125.94 96.78,-275.61 l 9.76,2.19 c -38.6,172.37 -100.31,282.96 -100.47,283.25 l -8.73,-4.88"
         style="fill:#19212a;fill-opacity:1;fill-rule:nonzero;stroke:none"
         id="path84" />
      <path
         d="m 3548.37,3205 c -5.13,-23.15 10,-196.98 30.23,-233.51 8.55,-15.42 132.04,-53.57 132.04,-53.57 0,0 -99.62,-314.88 -164.45,-326.26 -64.82,-11.38 -259.43,283.29 -259.43,283.29 0,0 91.04,35.69 96.34,46.68 14.41,29.91 -5.93,215.79 -5.93,215.79 l 171.2,67.58"
         style="fill:#f89f90;fill-opacity:1;fill-rule:nonzero;stroke:none"
         id="path86" />
      <path
         d="m 3383.1,2921.63 c -1.03,-2.14 -5.37,-5.23 -11.6,-8.79 27.93,-2.59 57.46,0.09 89.54,10.45 51.92,16.77 81.29,51.02 104.52,92.34 -13.1,65.07 -21.13,171.58 -17.19,189.37 l -171.2,-67.58 c 0,0 20.34,-185.88 5.93,-215.79"
         style="fill:#e88278;fill-opacity:1;fill-rule:nonzero;stroke:none"
         id="path88" />
      <path
         d="m 3532.91,3006.42 c -21.77,-18.81 -60.07,-63.31 -130.42,-75.35 -26.89,-4.6 -66.52,4.96 -82.14,19.33 -29.68,27.31 -72.34,109 -67.57,154.6 2.52,24.36 -0.45,56.78 4.26,86.37 4.1,25.72 2.45,59.49 6.38,75.65 13.07,53.77 43.05,110.15 88.66,119.42 124.13,25.27 287.65,-96.98 281.67,-135.05 -5.65,-35.88 -26.94,-97.18 -36.45,-143.89 -7.14,-35.21 -27.61,-69.31 -64.39,-101.08"
         style="fill:#f89e92;fill-opacity:1;fill-rule:nonzero;stroke:none"
         id="path90" />
      <path
         d="m 3379.58,3286.61 43.21,-2.32 58.1,57.64 -10.3,-66.35 20.75,-3.55 c 0,0 5.56,36 32.37,67.02 l -3.01,-69.96 c 0,0 31.5,-23.41 57.12,-32.72 25.63,-9.32 31.45,-15.3 31.45,-15.3 l -37.36,138.75 -82.95,40.71 -107.31,-9.51 -45.18,-61.64 43.11,-42.77"
         style="fill:#e88278;fill-opacity:1;fill-rule:nonzero;stroke:none"
         id="path92" />
      <path
         d="m 3270.57,3268.75 c 5.32,23.13 40.94,85.67 40.94,85.67 l -16.09,8.87 c -25.8,14.23 -31.27,-21.26 -49.1,-50.27 l 15.87,-88.9 c 8.23,22.21 5.84,33.57 8.38,44.63"
         style="fill:#1c2229;fill-opacity:1;fill-rule:nonzero;stroke:none"
         id="path94" />
      <path
         d="m 3554.31,3317.14 c 11.86,-29.89 30.86,-29.36 51.37,-50.48 20.52,-21.12 7.09,-147.62 7.09,-147.62 0,0 33.42,28.78 50.88,71.97 4.78,11.82 24.02,40.2 30.17,72.86 12.63,66.98 -1.81,86.82 -22.74,102.18 -21.88,16.06 -51.36,10.19 -51.36,10.19 l -65.41,-59.1"
         style="fill:#1c2229;fill-opacity:1;fill-rule:nonzero;stroke:none"
         id="path96" />
      <path
         d="m 3604.69,3163.04 c 9.26,8.62 33.59,25.93 43.74,13.57 10.13,-12.37 3.9,-74.52 -19.75,-100.47 -22.15,-24.3 -51.34,-15.82 -51.34,-15.82 l 12.87,82.56 14.48,20.16"
         style="fill:#f89e92;fill-opacity:1;fill-rule:nonzero;stroke:none"
         id="path98" />
      <path
         d="m 3590.95,3297.37 c 0,0 -13.8,-61.11 -6.77,-80.44 12.93,-35.58 3.41,-107.76 3.41,-107.76 l 29.84,63.28 24.6,53.72 -51.08,71.2"
         style="fill:#1c2229;fill-opacity:1;fill-rule:nonzero;stroke:none"
         id="path100" />
      <path
         d="m 3611.8,3146.83 c 8.68,16.5 26.54,17.32 27.76,5.4 1.22,-11.92 -5.25,-14.52 -5.25,-14.52 0,0 -9.68,-0.56 -16.27,-10.51 -13.81,-20.88 -14.61,-45.97 -14.61,-45.97 0,0 -12.68,25.6 8.37,65.6"
         style="fill:#e88278;fill-opacity:1;fill-rule:nonzero;stroke:none"
         id="path102" />
      <path
         d="m 3510.03,3353.22 c 16.87,-19.36 4.94,-75.25 -3.75,-84.45 0,0 75.75,-28.82 103.29,-16.45 24.81,11.16 33.77,46.25 33.77,46.25 l -27.3,58.76 -69.7,20.66 -36.31,-24.77"
         style="fill:#1c2229;fill-opacity:1;fill-rule:nonzero;stroke:none"
         id="path104" />
      <path
         d="m 3624.54,3420.24 c -7.72,12.65 -50.48,55.4 -148.94,55.8 -71.75,0.29 -129.14,-21.62 -155.1,-41.97 -45.4,-35.6 -62.11,-75.98 -74.18,-121.05 l 30.32,-11.87 c 1.39,1.35 27.35,-11.92 102.94,-14.54 14.69,22.63 48.34,48.09 48.34,48.09 -13.07,-18.03 -19.44,-35.73 -22.57,-49.69 25.23,-2.84 65.24,-9.43 65.24,-9.43 10.99,34 50.13,67.64 53.12,63.47 l 90.05,-7 24.95,17.47 c 0,0 6.1,37.55 -14.17,70.72"
         style="fill:#1c2229;fill-opacity:1;fill-rule:nonzero;stroke:none"
         id="path106" />
      <path
         d="m 3412.56,3232.13 c 0,0 3.14,11.86 13.9,18.17 0,0 47.89,-1.18 80.04,-41.54 0,0 -8.32,0.82 -11.45,1.69 -7.99,2.21 -50.3,25 -82.49,21.68"
         style="fill:#1c2229;fill-opacity:1;fill-rule:nonzero;stroke:none"
         id="path108" />
      <path
         d="m 3352.35,3237.94 c 0,0 3.62,12.84 -1.9,22.56 0,0 -24.44,8.85 -70,-11.26 0,0 1.37,-5.92 9.82,-5.05 8.46,0.87 42.53,9.98 62.08,-6.25"
         style="fill:#1c2229;fill-opacity:1;fill-rule:nonzero;stroke:none"
         id="path110" />
      <path
         d="m 3377.81,3176.62 c -6.68,-7.28 -12.85,-14.95 -18.94,-22.68 -6.16,-7.69 -11.93,-15.64 -17.7,-23.6 l -4.23,-6.03 -2.11,-3.02 c -0.69,-1.29 -1.38,-2.6 -1.99,-3.93 -0.31,-1.48 -0.71,-3 -0.71,-4.49 0.22,-1.46 0.16,-3.08 0.86,-4.32 0.97,-2.72 2.77,-4.78 4.7,-6.39 7.77,-6.42 12.19,-8.22 21.59,-9.72 0,0 6.08,0.79 2.15,3.16 -3.99,2.2 -17.56,6.79 -20.39,9.94 -2.8,3.18 -4.35,6.75 -2.85,10.15 l 1.4,2.55 2.17,2.97 4.31,5.94 c 5.63,8.01 11.25,16.01 16.5,24.28 5.3,8.23 10.53,16.52 15.24,25.19"
         style="fill:#e88278;fill-opacity:1;fill-rule:nonzero;stroke:none"
         id="path112" />
      <path
         d="m 3916.46,2272.35 c 8.07,49.9 -71.87,595.6 -80.15,602.74 -15.28,13.19 -122.41,47.01 -187.42,66.74 -34.04,-69.82 -83.14,-113.61 -165.56,-117.13 -51.37,-2.19 -120.87,23.27 -152.55,68.85 -105.95,-30.29 -135.43,-46.26 -135.43,-46.26 0,0 -35.67,-109.77 -22.64,-131.36 13.01,-21.69 21.31,-309.45 17.76,-458.55 -1.68,-70.48 -34.19,-278.46 -40.64,-372.17 112.77,-65.05 335.28,-45.49 361.95,-48.69 30.36,-3.63 166.51,-9.55 251.53,-34.69 99.69,-29.49 147.87,-78.17 153.15,-72.51 20.85,22.31 -12.88,463.07 0,543.03"
         style="fill:#28806a;fill-opacity:1;fill-rule:nonzero;stroke:none"
         id="path114" />
      <path
         d="m 3689.22,2929.23 c -34.38,9.59 -53.63,16.97 -53.63,16.97 -26.58,-67.67 -97.83,-122.38 -183.3,-115.61 -93.1,7.37 -106.93,71.91 -106.93,71.91 -14.86,-5.57 -32.4,-11.46 -47.22,-19 11.19,-25.01 47.1,-58.13 71.19,-71.35 26.44,-14.51 80.06,-24.27 110.62,-22.13 52.55,3.7 144.74,10.15 209.27,139.21"
         style="fill:#ffffff;fill-opacity:1;fill-rule:nonzero;stroke:none"
         id="path116" />
      <path
         d="m 3447.34,3170.25 c -2.39,-11.36 -10.08,-19.36 -17.18,-17.87 -7.1,1.49 -10.92,11.92 -8.54,23.28 2.39,11.36 10.08,19.36 17.19,17.87 7.1,-1.49 10.92,-11.91 8.53,-23.28"
         style="fill:#1c2229;fill-opacity:1;fill-rule:nonzero;stroke:none"
         id="path118" />
      <path
         d="m 3332.09,3193.93 c -2.39,-11.37 -10.08,-19.37 -17.19,-17.88 -7.1,1.49 -10.92,11.92 -8.53,23.28 2.39,11.36 10.09,19.37 17.18,17.87 7.1,-1.49 10.93,-11.91 8.54,-23.27"
         style="fill:#1c2229;fill-opacity:1;fill-rule:nonzero;stroke:none"
         id="path120" />
      <path
         d="m 3343.94,2130.4 c -20.14,4.76 -73.54,1.64 -104.99,-1.57 -31.47,-3.21 -42.78,-2.76 -57.03,-4.13 -14.25,-1.38 -18.05,-10.94 -6.39,-16.99 11.67,-6.05 27.49,-14.69 71.26,-9.64 43.77,5.05 102.26,5.96 102.26,5.96 0,0 5.66,23.83 -5.11,26.37"
         style="fill:#f89e92;fill-opacity:1;fill-rule:nonzero;stroke:none"
         id="path122" />
      <path
         d="m 3199.13,2113.56 c 23.82,4.59 48.46,8.93 72.88,8.31 26.56,-0.67 50.71,-6.65 71.41,-17.94 -15.67,-0.38 -61.02,-1.75 -96.63,-5.86 -43.77,-5.05 -59.59,3.59 -71.26,9.64 -1.73,0.9 -3.02,1.89 -4.08,2.91 8.72,0.19 17.55,1 27.68,2.94"
         style="fill:#ed706b;fill-opacity:1;fill-rule:nonzero;stroke:none"
         id="path124" />
      <path
         d="m 3130.76,2005.22 c 0,0 -1.16,0.41 -2.68,1.29 l 2.68,-1.29"
         style="fill:#f89e92;fill-opacity:1;fill-rule:nonzero;stroke:none"
         id="path126" />
      <path
         d="m 3116.94,2039.9 c 0.83,6.14 22.56,25.04 36.77,35.95 19.29,14.81 36.12,22.68 61,30.41 22.42,6.96 87.76,25.09 103.59,25.67 31.6,1.18 58.96,-10.06 77.82,-14.14 17.79,-3.83 55.99,-23.56 77.65,-23.56 29.75,0 154.67,28.55 154.67,28.55 l -15.79,-104.71 c 0,0 -52.31,-7.86 -69.81,-9.97 -46.69,-5.63 -75.18,-24.56 -118.14,-26.85 -42.96,-2.3 -59.84,15.34 -78.25,16.87 -18.41,1.54 -49.1,-3.83 -65.21,-9.97 -16.1,-6.14 -40.34,-21.28 -52.45,-21.28 -12.11,0 -15.56,14.58 -15.56,14.58 0,0 -17.51,-4.61 -29.27,-10.75 -11.77,-6.14 -28.66,3.84 -27.89,15.34 0,0 -10.74,-9.97 -19.18,-6.9 -8.43,3.07 -12.27,12.28 -6.13,26.08 0,0 26.63,24.53 39.18,34.27 12.54,9.76 34.47,22.39 39.78,25.46 5.29,3.07 37.07,10.59 37.07,10.59 0,0 -20.29,-2.06 -35.01,-4.21 -9.34,-1.36 -13.39,-3.57 -20.39,-7.95 -14.84,-9.31 -25.56,-16.5 -43.64,-27.17 -9.36,-5.54 -32.47,-8.56 -30.81,3.69"
         style="fill:#f89e92;fill-opacity:1;fill-rule:nonzero;stroke:none"
         id="path128" />
      <path
         d="m 3532.06,2110.44 c 27.67,6.91 73.57,-71.98 74.83,-124.27 0,0 297.39,58.79 421.86,103.74 124.48,44.95 141.78,82.99 127.94,148.68 -13.83,65.71 -121.79,412.78 -139.08,468.1 -17.29,55.33 -44.18,112.82 -113.33,147.4 -69.16,34.58 -141.78,48.41 -141.78,48.41 0,0 3.46,-197.09 13.83,-259.34 10.38,-62.24 110.65,-349.23 110.65,-349.23 l -354.92,-183.49"
         style="fill:#28806a;fill-opacity:1;fill-rule:nonzero;stroke:none"
         id="path130" />
      <path
         d="m 3993.09,2256.72 c -0.19,0.19 -10.71,10.9 -27.61,21.7 -16.9,10.76 -40.25,21.74 -66.32,21.77 -4.26,0.01 -8.59,-0.29 -12.97,-0.94 -2.94,-0.44 -4.97,-3.17 -4.53,-6.11 0.44,-2.94 3.17,-4.97 6.11,-4.54 3.83,0.57 7.63,0.83 11.39,0.83 22.94,0.04 44.63,-9.92 60.53,-20.08 7.94,-5.07 14.42,-10.16 18.89,-13.96 2.23,-1.9 3.96,-3.47 5.12,-4.56 l 1.31,-1.25 0.4,-0.4 c 2.08,-2.12 5.49,-2.15 7.61,-0.07 2.12,2.08 2.15,5.49 0.07,7.61"
         style="fill:#206957;fill-opacity:1;fill-rule:nonzero;stroke:none"
         id="path132" />
      <path
         d="m 3195.35,2847.29 c -48.2,-24.26 -78.57,-55.02 -106.85,-84.75 -95.58,-100.47 -196.75,-255.08 -248.08,-330.71 -66.51,-98.03 -115.53,-164.54 -115.53,-206.55 0,-42.01 31.52,-136.53 31.52,-136.53 0,0 45.5,45.51 98.01,52.51 52.51,7 127.88,-25.95 127.88,-25.95 0,0 -3.5,81.36 0,102.37 3.5,21 99.52,117.17 145.02,155.68 45.51,38.51 140.76,110.9 140.76,110.9 l -72.73,363.03"
         style="fill:#28806a;fill-opacity:1;fill-rule:nonzero;stroke:none"
         id="path134" />
      <path
         d="m 3122.17,1992.27 h -146.46 l -146.44,512.42 h 111.35 l 181.55,-512.42"
         style="fill:#b19fa1;fill-opacity:1;fill-rule:nonzero;stroke:none"
         id="path136" />
      <path
         d="m 3080.13,1992.27 h -645.99 l -146.45,512.42 h 645.99 l 146.45,-512.42"
         style="fill:#ccc2c2;fill-opacity:1;fill-rule:nonzero;stroke:none"
         id="path138" />
      <path
         d="M 3078.88,2003.88 H 2428.3 v -38.23 h 650.58 v 38.23"
         style="fill:#ccc2c2;fill-opacity:1;fill-rule:nonzero;stroke:none"
         id="path140" />
      <path
         d="m 3406.71,2003.88 h -327.83 v -38.23 h 327.83 v 38.23"
         style="fill:#b19fa1;fill-opacity:1;fill-rule:nonzero;stroke:none"
         id="path142" />
      <path
         d="m 3337.26,3067.32 c 21.54,-11.34 87.3,-3.4 107.71,11.34 0,0 -22.39,-37.44 -61.23,-35.15 -42.14,2.48 -46.48,23.81 -46.48,23.81"
         style="fill:#1c2229;fill-opacity:1;fill-rule:nonzero;stroke:none"
         id="path144" />
      <path
         d="m 3188.18,2606.89 c 0,-0.02 0.45,-8.21 1.12,-22.36 2,-42.43 6.01,-138.19 6.01,-224.74 0,-48.88 -1.29,-94.88 -4.89,-126.4 l 10.69,-1.22 c 3.69,32.35 4.96,78.52 4.96,127.62 0,115.82 -7.14,247.63 -7.14,247.68 l -10.75,-0.58"
         style="fill:#206957;fill-opacity:1;fill-rule:nonzero;stroke:none"
         id="path146" />
      <path
         d="m 3771.02,2642.28 c 2.71,-16.17 10.94,-45.74 21.83,-81.51 32.64,-107.16 89.04,-268.58 89.05,-268.62 l 5.08,1.78 -2.47,4.78 -354.92,-183.49 c -2.42,-1.25 -3.53,-4.13 -2.56,-6.68 0.96,-2.55 3.69,-3.98 6.34,-3.32 l 2.22,0.26 c 4.49,0.14 11.57,-3.52 18.95,-10.88 11.12,-10.92 22.86,-29.17 31.69,-49.13 8.87,-19.95 14.88,-41.7 15.29,-59.43 0.03,-1.59 0.76,-3.07 2.01,-4.07 1.24,-0.99 2.84,-1.39 4.41,-1.08 0.03,0.01 74.41,14.71 164.39,35.05 90.01,20.34 195.49,46.26 258.25,68.91 2.79,1.01 4.24,4.09 3.23,6.89 -1.01,2.79 -4.09,4.24 -6.89,3.23 -61.72,-22.3 -167.16,-48.25 -256.96,-68.54 -44.91,-10.15 -85.95,-18.89 -115.75,-25.1 -14.9,-3.11 -27,-5.58 -35.36,-7.27 -8.37,-1.69 -12.99,-2.61 -13,-2.61 l 1.04,-5.28 5.38,0.13 c -0.69,26.46 -11.83,58.09 -26.36,83.68 -7.29,12.78 -15.43,24.01 -23.82,32.28 -8.41,8.19 -17.06,13.85 -26.5,13.99 -1.62,0 -3.25,-0.19 -4.83,-0.59 l 1.3,-5.22 2.47,-4.78 354.92,183.49 c 2.38,1.23 3.49,4.02 2.61,6.55 0,0.01 -1.56,4.48 -4.32,12.44 -9.66,27.88 -33.97,98.44 -56.98,168.8 -11.51,35.18 -22.69,70.31 -31.55,100.01 -8.86,29.66 -15.41,54.04 -17.57,67.1 -0.49,2.93 -3.27,4.91 -6.2,4.42 -2.93,-0.49 -4.91,-3.26 -4.42,-6.19"
         style="fill:#206957;fill-opacity:1;fill-rule:nonzero;stroke:none"
         id="path148" />
      <path
         d="M 2726.68,1906.22 H 2675.8 L 2830.45,426.57 h 50.87 l -154.64,1479.65"
         style="fill:#bc775c;fill-opacity:1;fill-rule:nonzero;stroke:none"
         id="path150" />
      <path
         d="m 4289.35,1906.22 h -50.88 L 4393.12,426.57 h 50.86 l -154.63,1479.65"
         style="fill:#9d644f;fill-opacity:1;fill-rule:nonzero;stroke:none"
         id="path152" />
      <path
         d="m 1816.04,1906.22 h 50.88 L 1712.28,426.57 h -50.88 l 154.64,1479.65"
         style="fill:#bc775c;fill-opacity:1;fill-rule:nonzero;stroke:none"
         id="path154" />
      <path
         d="M 4522.7,1964.35 H 2212.05 v -76.96 H 4522.7 v 76.96"
         style="fill:#9d644f;fill-opacity:1;fill-rule:nonzero;stroke:none"
         id="path156" />
      <path
         d="M 2619.79,1964.35 H 1487.46 v -76.96 h 1132.33 v 76.96"
         style="fill:#bc775c;fill-opacity:1;fill-rule:nonzero;stroke:none"
         id="path158" />
      <path
         d="m 299.895,408.23 h 4568.34 v 21.2109 H 299.895 Z"
         style="fill:#ebcbc0;fill-opacity:1;fill-rule:nonzero;stroke:none"
         id="path160" />
      <path
         d="m 1898.66,1989.54 645.99,-0.19 80.15,533.36 -624.46,0.19 -101.68,-533.36"
         style="fill:#f1f1ef;fill-opacity:1;fill-rule:nonzero;stroke:none"
         id="path162" />
      <path
         d="m 2074.54,1989.48 -175.88,0.06 175.88,-0.05 v -0.01 m 275.35,533.31 -170.02,0.05 0.04,0.08 170.02,-0.05 -0.04,-0.08"
         style="fill:#fefaf9;fill-opacity:1;fill-rule:nonzero;stroke:none"
         id="path164" />
      <path
         d="m 2074.54,1989.49 -175.88,0.05 281.21,533.3 170.02,-0.05 -275.35,-533.31"
         style="fill:#fefefe;fill-opacity:1;fill-rule:nonzero;stroke:none"
         id="path166" />
      <path
         d="m 2502.04,2522.74 -92.92,0.03 0.08,0.15 92.9,-0.05 -0.06,-0.13"
         style="fill:#fefaf9;fill-opacity:1;fill-rule:nonzero;stroke:none"
         id="path168" />
      <path
         d="m 2226.71,1989.48 -98.76,0.06 281.17,533.23 92.92,-0.03 -275.33,-533.26"
         style="fill:#fefefe;fill-opacity:1;fill-rule:nonzero;stroke:none"
         id="path170" />
      <path
         d="m 2617.45,2522.83 -115.12,-533.41 h 42.05 l 88.02,519.83 c 1.2,7.1 -4.27,13.58 -11.47,13.58 h -3.48"
         style="fill:#b19fa1;fill-opacity:1;fill-rule:nonzero;stroke:none"
         id="path172" />
      <path
         d="m 1653.84,2001.04 h 878.06 c 10.31,0 18.67,-8.36 18.67,-18.67 v -0.9 c 0,-10.31 -8.36,-18.66 -18.67,-18.66 h -878.06 c -10.3,0 -18.66,8.35 -18.66,18.66 v 0.9 c 0,10.31 8.36,18.67 18.66,18.67"
         style="fill:#b19fa1;fill-opacity:1;fill-rule:nonzero;stroke:none"
         id="path174" />
      <path
         d="m 1396.37,2932.6 c 11.65,61.4 12.87,129.88 12.87,129.88 l 57.6,-7.41 158.65,-20.28 c 0.29,-11.49 -2.05,-41.92 -4.65,-78.76 -1.16,-16.37 -2.38,-34.11 -3.5,-51.96 -0.53,-10.93 0.42,-22.02 -1.58,-32.57 -3.76,-19.47 -2.7,-22.73 -6.29,-39.48 -8.22,-38.47 58.91,-138.38 58.4,-147.25 0,0 -284.86,159.08 -340.56,179.18 0,0 62.95,36.5 69.06,68.65"
         style="fill:#f8a195;fill-opacity:1;fill-rule:nonzero;stroke:none"
         id="path176" />
      <path
         d="m 1762.94,3118.26 c -19.15,-10.73 -28.38,-26.16 -27.8,-32.81 0.48,-6.54 2.37,-79.56 -1.95,-93.17 -4.33,-13.73 -15.11,-28.57 -47.19,-33.53 -4.24,-0.57 -8.36,-1.04 -12.38,-1.51 -19.15,-2.52 -42.43,-8.56 -55.69,-51.62 l -0.59,-1.55 c -7.48,-16.55 -40.72,19.06 -70.96,53.28 -18.96,21.27 -36.78,42.06 -46.49,49.39 -14.31,10.77 -25,28.24 -33.05,48.33 -23.14,57.11 -24.53,135.05 -24.53,135.05 l 29.39,121.89 165.8,60.26 79.97,-19.22 c 4.22,-2.38 14.2,-43.5 14.2,-43.5 0,0 8.35,-79.89 8.52,-99.9 0.17,-19.89 6.89,-39.42 15.86,-51.97 8.88,-12.67 26.04,-28.7 6.89,-39.42"
         style="fill:#f8a195;fill-opacity:1;fill-rule:nonzero;stroke:none"
         id="path178" />
      <path
         d="m 1588.2,3110.76 c 13.99,12.22 15.48,42.13 12.38,58.65 -3.1,16.53 -16.42,45.33 6.27,65.65 22.68,20.32 -31.88,77.69 -31.88,77.69 0,0 61.02,30.63 96.07,35.12 35.04,4.47 60.59,-38.31 60.59,-38.31 0,0 21.42,21 20.75,46.25 -0.75,28.57 -33.37,61.75 -132.73,76.9 -78.43,11.95 -182.16,6.92 -216.43,-3.68 -58.9,-18.25 -83.97,-46.37 -72.49,-103.3 0,0 -31.43,-15.9 -48.22,-51.18 -21.39,-45 -18.47,-117.94 28.31,-167.82 36.88,-39.32 54.44,-62.07 68.81,-86.13 14.56,-24.39 20.82,-58.49 20.82,-58.49 0,0 65.57,-2.52 102.41,34.97 27.93,28.4 33.37,99.25 33.37,99.25 l 8.24,76.34 43.73,-61.91"
         style="fill:#4a1813;fill-opacity:1;fill-rule:nonzero;stroke:none"
         id="path180" />
      <path
         d="m 1568.26,3164.94 c -24.73,27.57 -64.52,21.03 -59.8,-19.4 3.91,-33.7 19.62,-39.85 44.79,-67.05 17.08,-18.46 31.91,-8.91 32.64,0.52 2.05,26.71 -2.26,68.81 -17.63,85.93"
         style="fill:#f89e92;fill-opacity:1;fill-rule:nonzero;stroke:none"
         id="path182" />
      <path
         d="m 1572.92,3104.95 c 2.6,-6.98 4.19,-12.05 6.76,-17.23 2.14,2.3 -2,8.11 -4.49,20.27 -3.55,17.36 0.71,0.17 -4.99,17.01 -5.7,16.84 -10.18,27.06 -22.51,32.43 -13.15,5.72 -24.67,-3.69 -24.67,-3.69 27.04,-9.89 42.46,-28.72 49.9,-48.79"
         style="fill:#ed706b;fill-opacity:1;fill-rule:nonzero;stroke:none"
         id="path184" />
      <path
         d="m 1736.64,3074.45 c 0,0 -20,-1.11 -31.02,3.39 0,0 5.05,-30.34 30.64,-26.44 l 0.38,23.05"
         style="fill:#ffffff;fill-opacity:1;fill-rule:nonzero;stroke:none"
         id="path186" />
      <path
         d="m 1709.24,3264.54 c 6.77,2.9 14.19,4.65 20.79,1.34 3.15,-1.58 2.72,-11.71 2.72,-11.71 -5.72,4.25 -12.16,5.21 -19.61,2.47 -8.47,-3.13 -13.16,-9.04 -13.16,-9.04 -0.82,7.36 2.48,14.03 9.26,16.94"
         style="fill:#4a1813;fill-opacity:1;fill-rule:nonzero;stroke:none"
         id="path188" />
      <path
         d="m 1719.86,3211.89 c 0.69,-9.24 4.57,-16.49 8.68,-16.19 4.1,0.31 6.86,8.05 6.17,17.31 -0.69,9.25 -4.58,16.5 -8.68,16.19 -4.1,-0.3 -6.86,-8.05 -6.17,-17.31"
         style="fill:#4a1813;fill-opacity:1;fill-rule:nonzero;stroke:none"
         id="path190" />
      <path
         d="m 1617.93,2905.62 -0.59,-1.55 c -0.13,-2.8 -0.26,-5.54 -0.4,-8.33 -1.42,4.14 -2.82,8.36 -4.2,12.74 -8.54,27.23 -25,46.6 -36.11,72.16 -6.42,14.75 -8.84,30.59 -10.25,46.61 10.07,-22.29 23.11,-39.17 52.53,-51.76 14.32,-6.12 38.56,-16.8 54.71,-18.25 -19.24,1.72 -42.43,-8.56 -55.69,-51.62"
         style="fill:#ed706b;fill-opacity:1;fill-rule:nonzero;stroke:none"
         id="path192" />
      <path
         d="m 1410.46,932.91 -98.39,-47.691 -162.92,-219.848 183.54,-236.422 h 183.55 c 0,0 -4.94,45.371 -26.71,60.922 -21.78,15.559 -79.07,54.18 -79.07,54.18 l -19.71,86.101 136.32,207.45 -116.61,95.308"
         style="fill:#19212a;fill-opacity:1;fill-rule:nonzero;stroke:none"
         id="path194" />
      <path
         d="M 1732.48,800.961 1645.7,699.73 c 0,0 -40.49,-135.96 -40.49,-147.519 0,-11.582 -17.35,-81 -14.46,-98.352 2.89,-17.359 0,-37.597 17.35,-37.597 17.36,0 402.06,17.347 402.06,17.347 0,0 2.89,43.391 -57.85,69.422 -46.43,19.899 -121.48,69.418 -127.27,78.098 -5.79,8.672 31.82,216.941 31.82,216.941 l -124.38,2.891"
         style="fill:#19212a;fill-opacity:1;fill-rule:nonzero;stroke:none"
         id="path196" />
      <path
         d="M 1595.28,1376.56 1312.07,885.219 c 0,0 43.94,-151.317 214.79,-161.078 0,0 278.24,367.109 366.11,459.849 87.86,92.75 63.46,229.44 63.46,229.44 l -361.15,-36.87"
         style="fill:#3e4443;fill-opacity:1;fill-rule:nonzero;stroke:none"
         id="path198" />
      <path
         d="m 1071.16,1706.97 c 117.52,21.36 349.44,134.61 365.46,150.64 16.03,16.02 424.3,-25.81 533.44,-56.31 130.33,-36.42 185.49,-83.65 196.17,-163.77 10.68,-80.13 -85.47,-405.98 -144.23,-582.26 -58.76,-176.282 -118.86,-352.649 -118.86,-352.649 0,0 -141.73,-72.32 -257.44,-2.891 0,0 93.19,574.56 103.87,654.68 0,0 -202.99,-21.36 -389.95,26.71 -186.96,48.08 -288.46,325.85 -288.46,325.85"
         style="fill:#3e4443;fill-opacity:1;fill-rule:nonzero;stroke:none"
         id="path200" />
      <path
         d="m 1319.46,2840.16 c 7.87,19.67 19.68,82.65 90.53,90.52 70.84,7.87 188.92,-11.81 208.59,-27.55 19.69,-15.74 23.62,-157.43 23.62,-157.43 l -322.74,94.46"
         style="fill:#dd8d26;fill-opacity:1;fill-rule:nonzero;stroke:none"
         id="path202" />
      <path
         d="m 1070.16,1663.79 c 199.82,19.59 467.85,195.61 467.85,195.61 0,0 24.08,77.26 58.67,181.03 34.59,103.77 65.34,172.95 88.4,269.02 23.06,96.09 80.71,395.86 69.18,441.98 -11.53,46.12 -53.81,76.86 -103.77,96.08 -49.96,19.21 -280.55,49.96 -403.54,26.9 -122.98,-23.06 -172.95,-215.22 -226.75,-330.52 -53.805,-115.3 -161.415,-641.82 -169.102,-718.68 -7.684,-76.87 23.058,-180.63 219.062,-161.42"
         style="fill:#f89e2c;fill-opacity:1;fill-rule:nonzero;stroke:none"
         id="path204" />
      <path
         d="m 1653.23,698.531 103.87,654.689 -15.06,2.39 -103.87,-654.688"
         style="fill:#343938;fill-opacity:1;fill-rule:nonzero;stroke:none"
         id="path206" />
      <path
         d="m 1315.9,613.789 h -65.44 v 700.171 h 65.44 V 613.789"
         style="fill:#721839;fill-opacity:1;fill-rule:nonzero;stroke:none"
         id="path208" />
      <path
         d="m 1288.39,850.422 h -10.43 c -26.17,0 -47.38,-21.223 -47.38,-47.391 V 590.16 c 0,-12.449 10.08,-22.531 22.52,-22.531 h 60.16 c 12.43,0 22.52,10.082 22.52,22.531 v 212.871 c 0,26.168 -21.22,47.391 -47.39,47.391"
         style="fill:#721839;fill-opacity:1;fill-rule:nonzero;stroke:none"
         id="path210" />
      <path
         d="m 1283.18,591.379 v 0 c -7.69,0 -13.92,-6.227 -13.92,-13.918 v -89.84 c 0,-7.691 6.23,-13.922 13.92,-13.922 7.68,0 13.91,6.231 13.91,13.922 v 89.84 c 0,7.691 -6.23,13.918 -13.91,13.918"
         style="fill:#721839;fill-opacity:1;fill-rule:nonzero;stroke:none"
         id="path212" />
      <path
         d="m 1370.09,1244.59 h -173.83 c -24.07,0 -45.81,14.38 -55.23,36.53 l -23.28,54.72 c -16.84,39.59 12.22,83.53 55.24,83.53 h 220.37 c 43.03,0 72.08,-43.94 55.24,-83.53 l -23.27,-54.72 c -9.42,-22.15 -31.16,-36.53 -55.24,-36.53"
         style="fill:#721839;fill-opacity:1;fill-rule:nonzero;stroke:none"
         id="path214" />
      <path
         d="m 1610.05,459.922 c 0,-25.981 -21.07,-47.063 -47.06,-47.063 -25.99,0 -47.06,21.082 -47.06,47.063 0,25.988 21.07,47.058 47.06,47.058 25.99,0 47.06,-21.07 47.06,-47.058"
         style="fill:#721839;fill-opacity:1;fill-rule:nonzero;stroke:none"
         id="path216" />
      <path
         d="m 1330.24,459.922 c 0,-25.981 -21.07,-47.063 -47.06,-47.063 -25.99,0 -47.06,21.082 -47.06,47.063 0,25.988 21.07,47.058 47.06,47.058 25.99,0 47.06,-21.07 47.06,-47.058"
         style="fill:#721839;fill-opacity:1;fill-rule:nonzero;stroke:none"
         id="path218" />
      <path
         d="m 956.313,459.922 c 0,-25.981 21.066,-47.063 47.057,-47.063 25.99,0 47.05,21.082 47.05,47.063 0,25.988 -21.06,47.058 -47.05,47.058 -25.991,0 -47.057,-21.07 -47.057,-47.058"
         style="fill:#721839;fill-opacity:1;fill-rule:nonzero;stroke:none"
         id="path220" />
      <path
         d="m 1021.27,440.09 -27.793,12.57 c 51.093,112.981 161.963,183.16 289.353,183.16 h 0.05 c 127.35,-0.011 238.17,-70.199 289.22,-183.16 l -27.8,-12.57 c -46.05,101.902 -146.22,165.211 -261.43,165.242 h -0.04 c -115.26,0 -215.47,-63.32 -261.56,-165.242"
         style="fill:#721839;fill-opacity:1;fill-rule:nonzero;stroke:none"
         id="path222" />
      <path
         d="m 1507.18,1445.52 c -216.14,-46.89 -276.46,219.32 -296.38,531.35 -7.65,119.9 -12.75,252.54 -6.74,438.12 5.46,168.74 -96.62,291.2 -284.076,280.7 0,0 138.996,-442.44 160.196,-680.9 21.2,-238.47 -23.74,-422.63 105.99,-561.73 129.73,-139.1 321.01,-7.54 321.01,-7.54"
         style="fill:#5d132e;fill-opacity:1;fill-rule:nonzero;stroke:none"
         id="path224" />
      <path
         d="m 1410.26,1473.22 c -161.63,20.21 -246.76,351.75 -273.34,599.84 -12.46,116.24 -52.34,357.93 -56.81,440.44 -4.51,83.27 -28.65,178.89 -174.622,183.59 -154.043,4.98 -328.422,-4.74 -399.508,-4.86 -135.453,-0.23 -143.917,-81.02 -118.519,-144.15 57.848,-143.79 30.769,-729.15 137.094,-959.52 106.32,-230.36 256.894,-283.52 673.315,-283.52 416.43,0 630.9,17.32 680.24,45.34 53.47,30.36 96.7,117.61 19.46,122.84 -53.78,3.64 -416.43,-8.86 -487.31,0"
         style="fill:#721839;fill-opacity:1;fill-rule:nonzero;stroke:none"
         id="path226" />
      <path
         d="m 1887.95,2065.53 c -32.64,8.7 -51.13,6.53 -59.83,-10.88 -8.71,-17.4 -23.94,-35.9 -23.94,-44.61 0,-8.7 26.11,-8.7 33.73,-6.52 7.61,2.17 19.58,-5.44 30.45,-3.27 10.89,2.18 53.31,5.44 53.31,5.44 l -33.72,59.84"
         style="fill:#f8a195;fill-opacity:1;fill-rule:nonzero;stroke:none"
         id="path228" />
      <path
         d="m 1534.94,2688.67 c 9.15,86.96 128.79,158.84 128.79,158.84 0,0 97.13,-27.49 154.93,-116.81 57.8,-89.32 162.88,-325.76 210.17,-425.58 47.28,-99.84 72.63,-172.1 83.14,-219.39 10.52,-47.28 0.93,-132.64 -140.94,-122.14 -141.86,10.51 -231.18,257.45 -320.5,378.3 -89.32,120.85 -126.1,246.95 -115.59,346.78"
         style="fill:#f89e2c;fill-opacity:1;fill-rule:nonzero;stroke:none"
         id="path230" />
      <path
         d="m 1737.37,2217.55 c 0,0.01 -1.65,3.05 -4.61,8.59 -10.38,19.42 -36.73,69.31 -63.54,124.55 -26.8,55.2 -54.08,115.94 -66.16,156.26 l -13.49,-4.05 c 14.4,-47.94 48.18,-120.63 78.45,-181.74 30.25,-61.05 56.94,-110.28 56.97,-110.33 l 12.38,6.72"
         style="fill:#dd8d26;fill-opacity:1;fill-rule:nonzero;stroke:none"
         id="path232" />
    </g>
  </g>
</svg>
