<?xml version="1.0" encoding="utf-8"?>
<!-- Generator: Adobe Illustrator 26.5.0, SVG Export Plug-In . SVG Version: 6.00 Build 0)  -->
<svg version="1.1" id="Layer_1" xmlns="http://www.w3.org/2000/svg" xmlns:xlink="http://www.w3.org/1999/xlink" x="0px" y="0px"
	 viewBox="0 0 512 512" style="enable-background:new 0 0 512 512;" xml:space="preserve">
<style type="text/css">
	.st0{fill:#4987CE;}
</style>
<path class="st0" d="M255.98,511.9c-2.49,0-5.12,0-7.6-0.15L300.73,368h71.95c12.58,0,26.47-9.65,30.86-21.64l56.74-155.9
	c9.21-25.45-5.26-46.36-32.47-46.36h-99.88l-83.8,230.33l0,0L196.6,504.88C83.85,478.12,0.05,376.92,0.05,255.98
	c0-117.43,79.12-216.29,186.9-246.42l-48.99,134.69l0,0L56.5,368.15h54.26l69.17-190.26h40.8l-69.32,190.26h54.26l64.64-177.39
	c9.36-25.45-5.26-46.36-32.47-46.36h-45.63l52.36-143.9c3.8-0.15,7.6-0.29,11.55-0.29c141.42,0,255.93,114.51,255.93,255.93
	C511.9,397.25,397.39,511.9,255.98,511.9z M410.85,177.74h-40.8l-57.04,156.63h40.8L410.85,177.74z"/>
</svg>
