<?xml version="1.0" encoding="utf-8"?>
<!-- Generator: Adobe Illustrator 27.0.0, SVG Export Plug-In . SVG Version: 6.00 Build 0)  -->
<svg version="1.1" id="Layer_1" xmlns="http://www.w3.org/2000/svg" xmlns:xlink="http://www.w3.org/1999/xlink" x="0px" y="0px"
	 viewBox="0 0 512 512" style="enable-background:new 0 0 512 512;" xml:space="preserve">
<style type="text/css">
	.st0{fill:#E60012;}
</style>
<g id="XMLID_21_">
	<path id="XMLID_23_" class="st0" d="M214.64,225.82c-9.3,0-19.81,4.31-26.14,12.8l0,0l0,0v-11.45h-22.1v80.3h22.1v-45.68
		c0-8.22,6.33-16.98,18.19-16.98c9.16,0,18.59,6.33,18.59,16.98v45.68h22.1v-49.72C247.24,239.29,234.04,225.82,214.64,225.82"/>
	<polygon id="XMLID_27_" class="st0" points="403.94,227.17 384,281.87 364.06,227.17 338.86,227.17 371.87,307.47 396.13,307.47 
		429.14,227.17 	"/>
	<path id="XMLID_30_" class="st0" d="M100.51,251.42c3.77-4.99,9.7-7.95,16.98-7.95c7.95,0,14.01,4.58,17.11,11.18l-38.53,16.03
		C94.99,262.33,97.15,256,100.51,251.42 M142.96,282.81c-9.3,6.87-14.55,8.49-23.04,8.49c-7.68,0-13.61-2.43-17.79-6.47l56.32-23.44
		c-1.21-8.76-4.58-16.44-9.57-22.37c-7.41-8.62-18.32-13.2-31.66-13.2c-24.25,0-42.58,17.92-42.58,41.5c0,24.25,18.32,41.5,45,41.5
		c14.96,0,30.18-7.01,37.32-15.36L142.96,282.81z"/>
	<polygon id="XMLID_31_" class="st0" points="72.49,287.26 22.37,287.26 22.37,203.18 0,203.18 0,307.47 72.49,307.47 	"/>
	<path id="XMLID_34_" class="st0" d="M468.75,244.68c-12.26,0-21.29,9.3-21.29,22.64c0,12.67,9.43,22.64,21.56,22.64
		c12.26,0,21.29-9.57,21.29-22.64C490.31,254.65,480.74,244.68,468.75,244.68 M468.75,308.82c-24.12,0-42.98-17.92-42.98-41.5
		c0-23.31,19-41.5,43.25-41.5c24.12,0,42.98,17.92,42.98,41.5C512,290.63,493,308.82,468.75,308.82"/>
	<path id="XMLID_38_" class="st0" d="M298.98,244.68c-12.26,0-21.29,9.3-21.29,22.64c0,12.67,9.43,22.64,21.56,22.64
		c12.26,0,21.29-9.57,21.29-22.64C320.54,254.65,310.97,244.68,298.98,244.68 M298.98,308.82c-24.12,0-42.98-17.92-42.98-41.5
		c0-23.31,19-41.5,43.25-41.5c24.12,0,42.98,17.92,42.98,41.5C342.23,290.63,323.23,308.82,298.98,308.82"/>
</g>
</svg>
