<svg xmlns="http://www.w3.org/2000/svg" version="1.1" xmlns:xlink="http://www.w3.org/1999/xlink" xmlns:svgjs="http://svgjs.com/svgjs" width="200" height="560" preserveAspectRatio="none" viewBox="0 0 200 560"><g mask="url(&quot;#SvgjsMask1034&quot;)" fill="none"><path d="M102.12 614.33C137.11 542.48 122.31 308.63 162.84 300.49 203.38 292.35 191.25 460.55 223.57 502.09" stroke="rgba(143, 10, 133, 0.58)" stroke-width="2"></path><path d="M122.77 620.28C144.48 534.95 97.23 390.36 158.27 269.9 219.31 149.44 194.14 123.68 229.27 90.7" stroke="rgba(143, 10, 133, 0.58)" stroke-width="2"></path><path d="M58.95 622.49C108.23 543.82 56.49 361.98 147.78 261.95 239.07 161.92 198.41 132.27 236.61 110.75" stroke="rgba(143, 10, 133, 0.58)" stroke-width="2"></path><path d="M71.1 643.42C99.18 607.54 44.02 549.92 123.92 468.99 203.82 388.06 178.2 262.04 229.55 216.99" stroke="rgba(143, 10, 133, 0.58)" stroke-width="2"></path><path d="M84.71 644.01C107.98 628.02 61.4 608.14 135.88 543.32 210.36 478.5 187.3 329.02 238.23 280.12" stroke="rgba(143, 10, 133, 0.58)" stroke-width="2"></path></g><defs><mask id="SvgjsMask1034"><rect width="200" height="560" fill="#ffffff"></rect></mask></defs></svg>