<svg width="847" height="847" viewBox="0 0 847 847" fill="none" xmlns="http://www.w3.org/2000/svg">
<path fill-rule="evenodd" clip-rule="evenodd" d="M423.5 0C189.607 0 0 189.607 0 423.5C0 591.959 98.3581 737.445 240.779 805.663C240.456 800.897 240.288 796.003 240.288 791.036C240.154 763.169 237.621 757.036 221.221 746.235C199.621 732.102 177.754 706.769 166.154 682.369C155.221 659.302 145.221 622.102 140.954 587.969C133.754 532.102 140.021 455.569 156.421 397.302C166.821 360.769 186.288 317.302 194.954 311.569C200.288 307.969 208.554 308.102 214.288 311.836C218.021 314.236 222.154 321.702 223.621 328.635C225.221 336.102 229.754 345.969 231.754 345.969C235.754 345.969 240.154 342.635 242.954 337.435C251.221 322.369 262.421 316.235 272.288 321.302C276.954 323.702 277.354 325.702 278.021 348.902C278.554 372.369 279.621 373.569 302.288 377.836C306.688 378.636 315.354 381.702 321.488 384.769C330.554 389.169 335.354 392.902 347.488 404.636C355.621 412.502 366.021 421.436 370.688 424.369C385.088 433.702 402.154 437.836 426.954 437.969C433.221 437.969 448.688 439.169 461.354 440.502C486.021 443.036 488.288 443.836 494.154 451.836C500.421 460.236 497.488 486.636 488.154 505.702C482.554 517.302 471.621 528.502 460.688 534.369C446.554 541.702 437.621 543.436 406.954 544.769C377.354 545.969 367.888 547.569 358.554 553.036C354.325 555.535 351.308 558.052 349.516 560.554C369.047 566.224 387.287 572.735 396.248 582.986C430.864 585.425 493.683 582.945 510.288 577.836C527.888 572.502 542.554 556.902 548.554 537.436C553.354 522.102 552.554 509.702 544.554 472.635C535.488 430.236 533.088 411.436 534.021 388.636C535.888 341.702 554.821 308.902 590.954 289.969C604.021 283.302 621.754 278.102 636.954 276.769C643.621 276.102 651.621 275.836 654.954 276.102C672.154 277.436 678.954 278.369 689.354 281.435C703.488 285.435 730.154 298.502 733.621 303.035C739.754 310.769 735.221 317.702 721.354 321.969C683.087 333.435 663.888 360.502 666.021 399.302C666.421 406.236 668.021 418.236 669.621 425.969C677.088 463.702 679.088 511.969 673.888 532.902C668.154 556.236 658.688 573.302 643.754 586.902C633.354 596.369 624.554 601.702 607.354 609.169C590.421 616.502 589.621 618.102 597.354 630.902C611.754 654.769 615.088 671.969 610.288 697.035C607.754 710.102 608.821 715.302 616.021 725.302C625.754 738.902 626.288 741.702 626.288 783.302C626.288 787.638 626.27 791.663 626.233 795.413C757.773 723.557 847 583.949 847 423.5C847 189.607 657.393 0 423.5 0ZM590.499 700.807C590.627 700.754 590.735 700.697 590.821 700.635C590.872 700.61 590.695 700.505 590.313 700.331L590.499 700.807ZM650.69 419.711C650.998 421.258 651.279 422.674 651.53 423.938C653.015 431.415 653.453 433.62 652.154 426.636C651.749 424.455 651.256 422.14 650.69 419.711ZM695.221 315.169C693.514 316.029 691.569 316.482 689.442 316.613C694.414 315.017 697.029 314.265 695.221 315.169ZM437.221 457.169C438.275 457.696 437.554 460.009 435.815 463.37C436.313 461.332 436.782 459.264 437.221 457.169ZM200.954 331.302L201.141 332.645C200.805 331.959 200.735 331.505 200.954 331.302ZM490.554 755.836C490.4 755.936 490.549 755.687 490.964 755.128C490.905 755.457 490.771 755.695 490.554 755.836ZM500.142 788.407C500.176 788.708 500.209 789.011 500.242 789.317C499.757 789.155 499.567 789.055 499.562 788.947C499.557 788.818 499.813 788.678 500.142 788.407ZM494.021 836.102C494.046 835.829 494.224 835.489 494.538 835.091C494.368 835.426 494.195 835.762 494.021 836.102ZM501.618 837.07C501.36 838.276 501.198 839.236 501.153 839.897C501.278 839.873 501.402 839.85 501.527 839.827C501.56 838.897 501.59 837.978 501.618 837.07ZM538.659 831.155C541.583 824.834 544.189 818.03 546.288 811.036C548.154 804.635 550.421 799.036 551.088 798.502C553.354 797.169 558.154 799.036 560.154 802.102C561.088 803.836 562.421 811.169 562.954 818.635C563.086 820.223 563.246 821.79 563.433 823.336C555.286 826.187 547.025 828.796 538.659 831.155ZM477.646 843.571C477.182 832.93 479.786 817.625 485.621 795.702C490.288 777.969 490.421 776.502 486.954 773.302C484.421 771.036 483.354 771.036 468.554 772.769C448.554 775.169 413.088 775.169 394.554 772.769C372.954 769.969 371.888 771.036 370.554 797.302C370.021 805.702 368.288 816.502 365.621 826.635C364.027 832.793 362.521 837.99 360.991 842.419C381.39 845.437 402.262 847 423.5 847C441.844 847 459.917 845.834 477.646 843.571ZM355.672 781.083C355.652 781.267 355.633 781.45 355.613 781.633C355.595 781.489 355.616 781.305 355.672 781.083ZM255.469 767.466C255.026 770.344 254.443 773.264 253.798 776.098C253.72 771.959 254.254 769.184 255.469 767.466ZM574.648 694.506C575.448 694.788 576.228 695.064 576.987 695.334C577.243 697.313 577.502 699.194 577.754 700.979C577.09 701.124 576.528 701.366 575.993 701.727C575.484 699.356 575.052 696.94 574.648 694.506ZM262.688 370.236C262.479 370.481 262.352 370.351 262.291 369.912C262.421 370.02 262.553 370.128 262.688 370.236ZM234.121 353.802C234.196 354.072 234.272 354.338 234.348 354.6C234.199 354.449 234.121 354.187 234.121 353.802Z" fill="white"/>
</svg>
