<svg xmlns="http://www.w3.org/2000/svg" version="1.1" xmlns:xlink="http://www.w3.org/1999/xlink" xmlns:svgjs="http://svgjs.com/svgjs" width="1440" height="250" preserveAspectRatio="none" viewBox="0 0 1440 250"><g mask="url(&quot;#SvgjsMask1012&quot;)" fill="none"><path d="M19 250L269 0L540.5 0L290.5 250z" fill="url(#SvgjsLinearGradient1013)"></path><path d="M244.60000000000002 250L494.6 0L817.1 0L567.1 250z" fill="url(#SvgjsLinearGradient1013)"></path><path d="M482.20000000000005 250L732.2 0L883.7 0L633.7 250z" fill="url(#SvgjsLinearGradient1013)"></path><path d="M713.8000000000001 250L963.8000000000001 0L1256.3000000000002 0L1006.3000000000001 250z" fill="url(#SvgjsLinearGradient1013)"></path><path d="M1397 250L1147 0L803.5 0L1053.5 250z" fill="url(#SvgjsLinearGradient1014)"></path><path d="M1168.4 250L918.4000000000001 0L621.4000000000001 0L871.4000000000001 250z" fill="url(#SvgjsLinearGradient1014)"></path><path d="M952.8 250L702.8 0L399.79999999999995 0L649.8 250z" fill="url(#SvgjsLinearGradient1014)"></path><path d="M708.1999999999999 250L458.19999999999993 0L239.19999999999993 0L489.19999999999993 250z" fill="url(#SvgjsLinearGradient1014)"></path><path d="M1257.247964206827 250L1440 67.24796420682705L1440 250z" fill="url(#SvgjsLinearGradient1013)"></path><path d="M0 250L182.75203579317295 250L 0 67.24796420682705z" fill="url(#SvgjsLinearGradient1014)"></path></g><defs><mask id="SvgjsMask1012"><rect width="1440" height="250" fill="#ffffff"></rect></mask><linearGradient x1="0%" y1="100%" x2="100%" y2="0%" id="SvgjsLinearGradient1013"><stop stop-color="rgba(77, 51, 123, 0.42)" offset="0"></stop><stop stop-opacity="0" stop-color="rgba(77, 51, 123, 0.42)" offset="0.66"></stop></linearGradient><linearGradient x1="100%" y1="100%" x2="0%" y2="0%" id="SvgjsLinearGradient1014"><stop stop-color="rgba(77, 51, 123, 0.42)" offset="0"></stop><stop stop-opacity="0" stop-color="rgba(77, 51, 123, 0.42)" offset="0.66"></stop></linearGradient></defs></svg>