<svg xmlns="http://www.w3.org/2000/svg" version="1.1" xmlns:xlink="http://www.w3.org/1999/xlink" xmlns:svgjs="http://svgjs.com/svgjs" width="400" height="560" preserveAspectRatio="none" viewBox="0 0 400 560"><g mask="url(&quot;#SvgjsMask1096&quot;)" fill="none"><use xlink:href="#SvgjsPath1097" x="30" y="30" stroke="rgba(163, 75, 201, 1)"></use><use xlink:href="#SvgjsPath1098" x="30" y="90" stroke="rgba(163, 75, 201, 1)"></use><use xlink:href="#SvgjsPath1098" x="30" y="150" stroke="rgba(163, 75, 201, 1)"></use><use xlink:href="#SvgjsPath1099" x="30" y="210" stroke="rgba(163, 75, 201, 1)"></use><use xlink:href="#SvgjsPath1100" x="30" y="270" stroke="rgba(163, 75, 201, 1)"></use><use xlink:href="#SvgjsPath1099" x="30" y="330" stroke="rgba(163, 75, 201, 1)"></use><use xlink:href="#SvgjsPath1098" x="30" y="390" stroke="rgba(163, 75, 201, 1)"></use><use xlink:href="#SvgjsPath1099" x="30" y="450" stroke="rgba(163, 75, 201, 1)"></use><use xlink:href="#SvgjsPath1099" x="30" y="510" stroke="rgba(163, 75, 201, 1)"></use><use xlink:href="#SvgjsPath1100" x="30" y="570" stroke="rgba(163, 75, 201, 1)"></use><use xlink:href="#SvgjsPath1101" x="90" y="30" stroke="rgba(163, 75, 201, 1)"></use><use xlink:href="#SvgjsPath1100" x="90" y="90" stroke="rgba(163, 75, 201, 1)"></use><use xlink:href="#SvgjsPath1097" x="90" y="150" stroke="rgba(163, 75, 201, 1)"></use><use xlink:href="#SvgjsPath1099" x="90" y="210" stroke="rgba(163, 75, 201, 1)"></use><use xlink:href="#SvgjsPath1098" x="90" y="270" stroke="rgba(163, 75, 201, 1)"></use><use xlink:href="#SvgjsPath1100" x="90" y="330" stroke="rgba(163, 75, 201, 1)"></use><use xlink:href="#SvgjsPath1098" x="90" y="390" stroke="rgba(163, 75, 201, 1)"></use><use xlink:href="#SvgjsPath1098" x="90" y="450" stroke="rgba(163, 75, 201, 1)"></use><use xlink:href="#SvgjsPath1099" x="90" y="510" stroke="rgba(163, 75, 201, 1)"></use><use xlink:href="#SvgjsPath1100" x="90" y="570" stroke="rgba(163, 75, 201, 1)"></use><use xlink:href="#SvgjsPath1100" x="150" y="30" stroke="rgba(163, 75, 201, 1)"></use><use xlink:href="#SvgjsPath1097" x="150" y="90" stroke="rgba(163, 75, 201, 1)"></use><use xlink:href="#SvgjsPath1099" x="150" y="150" stroke="rgba(163, 75, 201, 1)"></use><use xlink:href="#SvgjsPath1099" x="150" y="210" stroke="rgba(163, 75, 201, 1)"></use><use xlink:href="#SvgjsPath1100" x="150" y="270" stroke="rgba(163, 75, 201, 1)"></use><use xlink:href="#SvgjsPath1099" x="150" y="330" stroke="rgba(163, 75, 201, 1)"></use><use xlink:href="#SvgjsPath1100" x="150" y="390" stroke="rgba(163, 75, 201, 1)"></use><use xlink:href="#SvgjsPath1101" x="150" y="450" stroke="rgba(163, 75, 201, 1)"></use><use xlink:href="#SvgjsPath1101" x="150" y="510" stroke="rgba(163, 75, 201, 1)"></use><use xlink:href="#SvgjsPath1099" x="150" y="570" stroke="rgba(163, 75, 201, 1)"></use><use xlink:href="#SvgjsPath1100" x="210" y="30" stroke="rgba(163, 75, 201, 1)"></use><use xlink:href="#SvgjsPath1100" x="210" y="90" stroke="rgba(163, 75, 201, 1)"></use><use xlink:href="#SvgjsPath1098" x="210" y="150" stroke="rgba(163, 75, 201, 1)"></use><use xlink:href="#SvgjsPath1098" x="210" y="210" stroke="rgba(163, 75, 201, 1)"></use><use xlink:href="#SvgjsPath1100" x="210" y="270" stroke="rgba(163, 75, 201, 1)"></use><use xlink:href="#SvgjsPath1101" x="210" y="330" stroke="rgba(163, 75, 201, 1)"></use><use xlink:href="#SvgjsPath1100" x="210" y="390" stroke="rgba(163, 75, 201, 1)"></use><use xlink:href="#SvgjsPath1098" x="210" y="450" stroke="rgba(163, 75, 201, 1)"></use><use xlink:href="#SvgjsPath1099" x="210" y="510" stroke="rgba(163, 75, 201, 1)"></use><use xlink:href="#SvgjsPath1099" x="210" y="570" stroke="rgba(163, 75, 201, 1)"></use><use xlink:href="#SvgjsPath1099" x="270" y="30" stroke="rgba(163, 75, 201, 1)"></use><use xlink:href="#SvgjsPath1099" x="270" y="90" stroke="rgba(163, 75, 201, 1)"></use><use xlink:href="#SvgjsPath1100" x="270" y="150" stroke="rgba(163, 75, 201, 1)"></use><use xlink:href="#SvgjsPath1098" x="270" y="210" stroke="rgba(163, 75, 201, 1)"></use><use xlink:href="#SvgjsPath1099" x="270" y="270" stroke="rgba(163, 75, 201, 1)"></use><use xlink:href="#SvgjsPath1099" x="270" y="330" stroke="rgba(163, 75, 201, 1)"></use><use xlink:href="#SvgjsPath1101" x="270" y="390" stroke="rgba(163, 75, 201, 1)"></use><use xlink:href="#SvgjsPath1100" x="270" y="450" stroke="rgba(163, 75, 201, 1)"></use><use xlink:href="#SvgjsPath1099" x="270" y="510" stroke="rgba(163, 75, 201, 1)"></use><use xlink:href="#SvgjsPath1098" x="270" y="570" stroke="rgba(163, 75, 201, 1)"></use><use xlink:href="#SvgjsPath1098" x="330" y="30" stroke="rgba(163, 75, 201, 1)"></use><use xlink:href="#SvgjsPath1100" x="330" y="90" stroke="rgba(163, 75, 201, 1)"></use><use xlink:href="#SvgjsPath1099" x="330" y="150" stroke="rgba(163, 75, 201, 1)"></use><use xlink:href="#SvgjsPath1098" x="330" y="210" stroke="rgba(163, 75, 201, 1)"></use><use xlink:href="#SvgjsPath1098" x="330" y="270" stroke="rgba(163, 75, 201, 1)"></use><use xlink:href="#SvgjsPath1099" x="330" y="330" stroke="rgba(163, 75, 201, 1)"></use><use xlink:href="#SvgjsPath1098" x="330" y="390" stroke="rgba(163, 75, 201, 1)"></use><use xlink:href="#SvgjsPath1102" x="330" y="450" stroke="rgba(163, 75, 201, 1)" stroke-width="3"></use><use xlink:href="#SvgjsPath1098" x="330" y="510" stroke="rgba(163, 75, 201, 1)"></use><use xlink:href="#SvgjsPath1101" x="330" y="570" stroke="rgba(163, 75, 201, 1)"></use><use xlink:href="#SvgjsPath1098" x="390" y="30" stroke="rgba(163, 75, 201, 1)"></use><use xlink:href="#SvgjsPath1099" x="390" y="90" stroke="rgba(163, 75, 201, 1)"></use><use xlink:href="#SvgjsPath1099" x="390" y="150" stroke="rgba(163, 75, 201, 1)"></use><use xlink:href="#SvgjsPath1098" x="390" y="210" stroke="rgba(163, 75, 201, 1)"></use><use xlink:href="#SvgjsPath1097" x="390" y="270" stroke="rgba(163, 75, 201, 1)"></use><use xlink:href="#SvgjsPath1099" x="390" y="330" stroke="rgba(163, 75, 201, 1)"></use><use xlink:href="#SvgjsPath1097" x="390" y="390" stroke="rgba(163, 75, 201, 1)"></use><use xlink:href="#SvgjsPath1099" x="390" y="450" stroke="rgba(163, 75, 201, 1)"></use><use xlink:href="#SvgjsPath1099" x="390" y="510" stroke="rgba(163, 75, 201, 1)"></use><use xlink:href="#SvgjsPath1097" x="390" y="570" stroke="rgba(163, 75, 201, 1)"></use></g><defs><mask id="SvgjsMask1096"><rect width="400" height="560" fill="#ffffff"></rect></mask><path d="M-1 0 a1 1 0 1 0 2 0 a1 1 0 1 0 -2 0z" id="SvgjsPath1101"></path><path d="M-3 0 a3 3 0 1 0 6 0 a3 3 0 1 0 -6 0z" id="SvgjsPath1097"></path><path d="M-5 0 a5 5 0 1 0 10 0 a5 5 0 1 0 -10 0z" id="SvgjsPath1098"></path><path d="M2 -2 L-2 2z" id="SvgjsPath1100"></path><path d="M6 -6 L-6 6z" id="SvgjsPath1099"></path><path d="M30 -30 L-30 30z" id="SvgjsPath1102"></path></defs></svg>