<svg xmlns="http://www.w3.org/2000/svg" width="85" height="31" fill="none"><g clip-path="url(#a)"><path fill="#39007D" d="M34.909 0c-.007.07-.018.14-.018.21-.002 2.167-.002 4.336 0 6.503 0 .06.007.122.012.213.055-.037.1-.057.13-.09 1.29-1.402 2.897-1.684 4.648-1.205 1.681.46 2.54 1.72 2.887 3.359.101.48.152.978.155 1.468.015 2.643.007 5.287.007 7.931 0 .077-.009.154-.014.248h-4.533v-.317c0-2.203.006-4.406-.006-6.61a4.092 4.092 0 0 0-.14-1.04c-.163-.6-.574-.963-1.2-1.037-.645-.076-1.188.117-1.558.678-.297.452-.37.964-.37 1.492-.002 2.168-.001 4.336-.001 6.503v.33H30.36V0h4.549ZM84.627.053c-.048.092-.105.18-.145.277-1.53 3.692-3.061 7.385-4.583 11.081-.09.218-.192.304-.439.301-1.585-.013-3.171-.006-4.756-.006h-.326c.053-.136.088-.233.127-.328 1.529-3.694 3.059-7.387 4.586-11.08.04-.096.06-.199.088-.298 1.746 0 3.491 0 5.237.002.07 0 .141.033.211.05Z"/><path fill="#7E1FFF" d="M51.728 30.995c-.117-.03-.234-.065-.352-.087-1.069-.2-1.848-.793-2.355-1.744-.806-1.512-.631-3.47.444-4.716.865-1.003 1.972-1.341 3.262-1.044.438.101.816.326 1.128.655.053.056.112.105.22.206.012-.194.035-.33.026-.462-.017-.226.06-.311.298-.306.635.015 1.27.018 1.903 0 .264-.008.349.064.347.337-.012 1.753-.006 3.506-.006 5.26 0 .458-.008.916.003 1.374.005.211-.052.3-.28.295a51.578 51.578 0 0 0-1.983 0c-.23.004-.294-.089-.281-.297.008-.143-.011-.287-.017-.431a13.232 13.232 0 0 0-.098-.05c-.066.091-.121.194-.201.271-.401.387-.89.59-1.436.67-.085.013-.167.046-.25.07h-.37l-.002-.001Zm.89-2.359c.876 0 1.56-.67 1.557-1.523-.005-.828-.705-1.511-1.554-1.517a1.533 1.533 0 0 0-1.547 1.54c.002.847.674 1.5 1.544 1.5ZM75.636 30.995c-.301-.057-.605-.101-.903-.173-1.645-.396-2.675-1.691-2.737-3.387-.057-1.544.484-2.784 1.825-3.598 1.675-1.018 3.985-.578 5.054.938.59.837.755 1.787.712 2.79-.009.204-.137.188-.271.188h-2.539c-.661 0-1.322-.001-1.983.002-.286 0-.31.037-.234.31.179.637.937 1.044 1.668.847.267-.073.498-.275.75-.409.082-.042.195-.103.265-.078.677.247 1.348.511 2.058.785-.06.097-.101.178-.155.252-.675.924-1.62 1.349-2.73 1.465-.102.011-.203.045-.304.068h-.476Zm-1.102-4.704c.122.007.207.016.292.017h1.926c.347 0 .388-.06.238-.383-.231-.5-.666-.678-1.18-.693-.54-.015-1.02.276-1.198.711-.04.1-.05.213-.08.348h.002ZM69.447 30.995c-.178-.038-.356-.082-.536-.112-1.806-.293-3.054-1.718-3.094-3.547-.035-1.572.538-2.831 1.97-3.582 1.073-.562 2.206-.599 3.355-.204.187.065.26.164.255.365-.012.59-.004 1.18-.005 1.77 0 .077-.01.153-.013.205-.405-.094-.79-.224-1.183-.265-.815-.084-1.552.428-1.715 1.143-.221.971.455 1.812 1.494 1.863.49.025.938-.108 1.38-.363.017.073.036.12.036.167.002.643-.002 1.287.004 1.93.002.158-.06.251-.206.29-.58.13-1.14.385-1.742.34Z"/><path fill="#39007D" d="M24.424 18.637v-1.134c-.061.035-.093.046-.112.067-.834.967-1.93 1.368-3.165 1.407-2.8.089-5.175-1.645-6.013-4.447-.788-2.635-.394-5.094 1.485-7.158 1.614-1.774 3.648-2.358 5.985-1.66a3.64 3.64 0 0 1 1.671 1.074c.032.035.073.063.15.13V5.755h4.373v12.883h-4.373Zm-2.58-3.765c1.505.003 2.673-1.149 2.685-2.647a2.642 2.642 0 0 0-2.676-2.685c-1.51.005-2.672 1.152-2.686 2.65-.013 1.502 1.16 2.677 2.678 2.682ZM.019 5.735h.317c1.446 0 2.89.004 4.336-.006.214-.001.307.067.382.263.902 2.324 1.812 4.645 2.72 6.967.038.097.079.194.143.351.06-.132.1-.212.134-.296.918-2.327 1.84-4.653 2.75-6.983.086-.22.187-.306.435-.303 1.384.014 2.768.007 4.151.007h.327c-.039.111-.062.191-.094.267-2.372 5.72-4.746 11.44-7.113 17.163-.087.21-.187.29-.42.288-1.41-.012-2.82-.006-4.23-.006h-.295c.049-.128.08-.217.117-.304.58-1.372 1.156-2.744 1.744-4.112a.63.63 0 0 0-.005-.548C3.666 14.366 1.922 10.245.176 6.124.13 6.013.086 5.9.02 5.735ZM72.128 12.204c0 3.576-2.547 6.394-6.121 6.735-2.34.222-4.416-.407-5.992-2.198-1.816-2.063-2.178-4.48-1.238-7.021.921-2.486 2.834-3.837 5.432-4.218a7.117 7.117 0 0 1 4.03.561c2.413 1.09 3.889 3.428 3.89 6.141Zm-6.842-2.61c-1.44-.049-2.605 1.053-2.657 2.513-.052 1.465 1.03 2.658 2.457 2.71 1.496.056 2.675-1.026 2.722-2.497.048-1.514-1.028-2.677-2.522-2.727ZM57.52 11.845c-.026 4.164-2.894 7.068-6.662 7.137-2.207.04-4.135-.646-5.565-2.37-1.726-2.078-2.053-4.464-1.101-6.954.934-2.444 2.831-3.778 5.396-4.154 1.483-.217 2.93-.024 4.268.671 2.45 1.271 3.59 3.353 3.664 5.67Zm-6.907 2.975c1.465-.001 2.59-1.133 2.591-2.608.002-1.476-1.116-2.611-2.581-2.619-1.474-.008-2.603 1.13-2.6 2.623.002 1.478 1.124 2.605 2.59 2.604Z"/><path fill="#7E1FFF" d="M43.277 24.313c.035-.06.062-.126.106-.179 1.137-1.372 3.41-1.035 4.068.618.137.345.226.732.233 1.102.027 1.55.01 3.101.019 4.652 0 .2-.073.257-.264.255a68.702 68.702 0 0 0-2.035.001c-.223.004-.288-.073-.287-.29.008-1.18.009-2.36 0-3.541a2.485 2.485 0 0 0-.1-.674c-.114-.391-.411-.59-.807-.61-.38-.018-.714.13-.864.49a2.422 2.422 0 0 0-.178.866c-.02 1.128-.008 2.256-.008 3.383 0 .248-.128.372-.383.372-.643 0-1.286-.007-1.93.004-.205.003-.276-.062-.276-.272.006-2.238.006-4.476 0-6.713 0-.196.047-.284.267-.28.687.013 1.374.01 2.061.001.195-.002.274.063.262.258-.01.17-.002.339-.002.508l.118.049ZM60.514 24.287c.041-.04.089-.075.124-.12.653-.825 1.525-.998 2.494-.792.962.205 1.51.859 1.741 1.786.074.296.108.609.11.914.012 1.463.002 2.925.011 4.388.002.231-.066.305-.3.3-.624-.014-1.25-.005-1.876-.005-.273 0-.41-.133-.41-.399 0-1.083 0-2.167-.002-3.25a4.81 4.81 0 0 0-.033-.58c-.063-.528-.403-.862-.887-.886-.479-.023-.887.309-.987.818-.035.18-.053.367-.054.55-.005 1.155-.007 2.309.002 3.463.001.216-.062.292-.285.288-.67-.012-1.339-.013-2.008 0-.24.005-.298-.085-.298-.308.007-2.212.007-4.423 0-6.635 0-.23.051-.33.309-.323.669.018 1.339.013 2.009.002.21-.004.288.063.271.271-.014.164-.003.33-.003.495l.071.023ZM35.855 22.209c-.334-.026-.613-.075-.89-.063-.653.028-1.006.495-1.011 1.152-.002.165.091.207.238.205.432-.004.864.006 1.295-.004.189-.004.271.05.268.252a50.8 50.8 0 0 0-.002 1.585c.003.18-.06.251-.246.246-.414-.01-.829.01-1.242-.008-.248-.011-.319.08-.318.317.007 1.507.004 3.013.003 4.52 0 .346 0 .347-.351.347-.634 0-1.27-.012-1.903.006-.263.007-.323-.086-.32-.334.01-1.488.004-2.977.004-4.466 0-.385-.001-.381-.37-.386-.676-.011-.6.116-.604-.6-.002-.406.005-.812-.002-1.216-.004-.19.06-.271.26-.265.217.007.508.062.633-.052.12-.107.072-.405.09-.62.134-1.479.892-2.44 2.225-2.78a3.942 3.942 0 0 1 1.96.006c.202.05.291.144.286.364-.014.597-.005 1.194-.005 1.793h.002Z"/><path fill="#39007D" d="M72.717 15.934a3.043 3.043 0 0 1 3.045-3.072c1.68-.004 2.975 1.286 2.973 2.96a3.037 3.037 0 0 1-3.059 3.058c-1.663.002-2.954-1.283-2.96-2.946h.001Z"/><path fill="#7E1FFF" d="M39.358 27.141c0 1.1-.005 2.202.004 3.303.002.238-.066.325-.315.32a52.767 52.767 0 0 0-1.981-.002c-.207.003-.297-.044-.296-.276.007-2.237.006-4.474.001-6.711 0-.199.047-.282.266-.278a55.4 55.4 0 0 0 2.034 0c.22-.003.292.071.29.288-.007 1.119-.003 2.237-.003 3.355v.001ZM38.06 22.733a1.424 1.424 0 0 1-1.444-1.437c.002-.788.675-1.45 1.459-1.437a1.451 1.451 0 0 1 1.44 1.453c-.003.808-.631 1.422-1.454 1.421Z"/></g><defs><clipPath id="a"><path fill="#fff" d="M0 0h84.627v31H0z"/></clipPath></defs></svg>